<?xml version="1.0" encoding="UTF-8"?>
<svg version="1.1" xmlns="http://www.w3.org/2000/svg" width="1365" height="628">
<path d="M0 0 C450.45 0 900.9 0 1365 0 C1365 207.24 1365 414.48 1365 628 C914.55 628 464.1 628 0 628 C0 420.76 0 213.52 0 0 Z " fill="#FEFEFE" transform="translate(0,0)"/>
<path d="M0 0 C5.28 0 10.56 0 16 0 C16 206.25 16 412.5 16 625 C10.72 625 5.44 625 0 625 C0 447.13 0 269.26 0 86 C-445.17 86 -890.34 86 -1349 86 C-1349 85.34 -1349 84.68 -1349 84 C-903.83 84 -458.66 84 0 84 C0 56.28 0 28.56 0 0 Z " fill="#C8C8C8" transform="translate(1349,3)"/>
<path d="M0 0 C0.64958254 -0.00311998 1.29916509 -0.00623996 1.96843195 -0.00945449 C4.15494903 -0.01746071 6.34119059 -0.01110082 8.52770996 -0.00482178 C10.09124413 -0.00753048 11.65477703 -0.01109073 13.2183075 -0.01544189 C17.47235156 -0.02458254 21.72629895 -0.02101477 25.98034477 -0.01468372 C30.42505028 -0.00963238 34.86974731 -0.01431276 39.31445312 -0.01745605 C46.77959688 -0.02109823 54.24470111 -0.01629002 61.70983887 -0.0067749 C70.34971932 0.00411013 78.9895054 0.00058473 87.62938356 -0.01042771 C95.03747 -0.01949344 102.44552796 -0.02078938 109.85361814 -0.01555037 C114.28249885 -0.01242673 118.71133514 -0.01203211 123.14021301 -0.01862335 C127.30326586 -0.02438582 131.46619661 -0.0204202 135.62923622 -0.00883484 C137.16032521 -0.00618234 138.69142441 -0.00696334 140.22250938 -0.01136017 C142.30627621 -0.01679401 144.38964733 -0.01000833 146.47338867 0 C148.22550785 0.00113108 148.22550785 0.00113108 150.01302338 0.002285 C152.73669434 0.25396729 152.73669434 0.25396729 154.73669434 2.25396729 C154.93643167 4.95532051 155.01651007 7.5519394 155.00231934 10.25396729 C155.00423279 11.04545166 155.00614624 11.83693604 155.00811768 12.65240479 C155.00947951 14.32688718 155.00578315 16.00138014 154.99743652 17.67584229 C154.98673674 20.2437911 154.99733159 22.81104032 155.01013184 25.37896729 C155.00881024 27.00396883 155.00624785 28.62896995 155.00231934 30.25396729 C155.0063678 31.02482666 155.01041626 31.79568604 155.0145874 32.58990479 C154.96661566 38.02404596 154.96661566 38.02404596 152.73669434 40.25396729 C150.01302338 40.50564957 150.01302338 40.50564957 146.47338867 40.50793457 C145.49901486 40.51261454 145.49901486 40.51261454 144.50495672 40.51738906 C142.31843965 40.52539528 140.13219808 40.51903539 137.94567871 40.51275635 C136.38214454 40.51546505 134.81861164 40.5190253 133.25508118 40.52337646 C129.00103711 40.53251711 124.74708972 40.52894934 120.4930439 40.52261829 C116.0483384 40.51756695 111.60364136 40.52224733 107.15893555 40.52539062 C99.69379179 40.5290328 92.22868756 40.52422459 84.7635498 40.51470947 C76.12366935 40.50382444 67.48388327 40.50734984 58.84400511 40.51836228 C51.43591868 40.52742801 44.02786071 40.52872395 36.61977053 40.52348495 C32.19088983 40.5203613 27.76205354 40.51996668 23.33317566 40.52655792 C19.17012281 40.53232039 15.00719206 40.52835477 10.84415245 40.51676941 C9.31306346 40.51411691 7.78196426 40.51489791 6.25087929 40.51929474 C4.16711247 40.52472858 2.08374134 40.5179429 0 40.50793457 C-1.16807945 40.50718052 -2.33615891 40.50642647 -3.5396347 40.50564957 C-6.26330566 40.25396729 -6.26330566 40.25396729 -8.26330566 38.25396729 C-8.463043 35.55261406 -8.54312139 32.95599517 -8.52893066 30.25396729 C-8.53084412 29.46248291 -8.53275757 28.67099854 -8.534729 27.85552979 C-8.53609084 26.18104739 -8.53239448 24.50655443 -8.52404785 22.83209229 C-8.51334806 20.26414347 -8.52394291 17.69689425 -8.53674316 15.12896729 C-8.53542157 13.50396574 -8.53285917 11.87896462 -8.52893066 10.25396729 C-8.53297913 9.48310791 -8.53702759 8.71224854 -8.54119873 7.91802979 C-8.47821647 0.78352808 -6.86856258 0.00443399 0 0 Z " fill="#03D1B3" transform="translate(107.2633056640625,278.74603271484375)"/>
<path d="M0 0 C1.20185149 -0.00631043 1.20185149 -0.00631043 2.42798281 -0.01274834 C5.14113007 -0.02327492 7.85377406 -0.0122343 10.56691462 -0.00147593 C12.52873981 -0.00460241 14.49056327 -0.00904396 16.45238283 -0.01468903 C21.88555135 -0.02645153 27.31856154 -0.01933957 32.75172769 -0.00935517 C38.6466008 -0.00178638 44.54144848 -0.01150831 50.43631804 -0.01908517 C60.78179663 -0.02995457 71.12723828 -0.02967146 81.47271734 -0.02194369 C92.57715139 -0.01369944 103.68155795 -0.01194123 114.78599364 -0.01815569 C115.48649982 -0.01854321 116.187006 -0.01893073 116.90873964 -0.01932999 C119.76163874 -0.02092974 122.61453782 -0.02257586 125.46743687 -0.02428082 C152.06150651 -0.04016292 178.65555771 -0.0412187 205.24963003 -0.03283846 C206.03823687 -0.03259008 206.82684371 -0.03234169 207.63934773 -0.03208578 C208.42920951 -0.03183699 209.21907129 -0.0315882 210.03286828 -0.03133187 C234.07211076 -0.02376991 258.11134563 -0.02180461 282.15058905 -0.0253998 C283.75879686 -0.02563224 285.36700467 -0.02586371 286.97521248 -0.02609421 C293.43753604 -0.02702557 299.89985959 -0.02798157 306.36218314 -0.02897351 C324.42845915 -0.03172488 342.49473518 -0.03343643 360.56101137 -0.03433192 C361.79517968 -0.03439332 361.79517968 -0.03439332 363.05428067 -0.03445597 C389.28176229 -0.03568427 415.50924126 -0.03230071 441.73672205 -0.02578318 C443.01320124 -0.02546706 443.01320124 -0.02546706 444.31546788 -0.02514455 C458.13593605 -0.02170949 471.95640417 -0.0180512 485.77687228 -0.01437403 C540.59187586 0.0001949 595.40685746 -0.00048003 650.22186095 -0.01506579 C664.03407577 -0.01872921 677.84629061 -0.0223623 691.6585055 -0.02578318 C692.93412022 -0.0261002 692.93412022 -0.0261002 694.23550494 -0.02642362 C720.43412584 -0.03288998 746.63274492 -0.03563541 772.8313666 -0.03433192 C773.65355887 -0.03429116 774.47575113 -0.03425041 775.32285832 -0.03420842 C793.36949636 -0.03327108 811.4161342 -0.03137034 829.46277205 -0.02860041 C835.91972039 -0.02761294 842.37666874 -0.0266737 848.83361709 -0.02574828 C850.44001427 -0.02551611 852.04641146 -0.02527992 853.65280865 -0.02503969 C877.68646863 -0.02145547 901.72012004 -0.02451492 925.75377896 -0.03208578 C926.542303 -0.03233416 927.33082704 -0.03258255 928.14324576 -0.03283846 C928.93032234 -0.03308651 929.71739892 -0.03333456 930.5283263 -0.03359012 C957.04496256 -0.04185544 983.56157667 -0.03884004 1010.07820975 -0.02299623 C1012.92273195 -0.02133909 1015.76725417 -0.01972898 1018.61177641 -0.01815569 C1019.30989422 -0.01776507 1020.00801203 -0.01737445 1020.72728493 -0.016972 C1031.80382068 -0.01104326 1042.88032901 -0.01518681 1053.9568623 -0.02346271 C1064.83522169 -0.03137773 1075.71353977 -0.02839675 1086.59189422 -0.01442045 C1092.41663047 -0.00724334 1098.24126216 -0.00492786 1104.06599533 -0.0156384 C1109.35592766 -0.02526696 1114.64566186 -0.02130339 1119.9355795 -0.00609642 C1121.84599962 -0.00305348 1123.75643582 -0.0051289 1125.66684331 -0.01271423 C1128.24608102 -0.02223532 1130.82461757 -0.01351868 1133.40382195 0 C1134.15091405 -0.00717223 1134.89800616 -0.01434445 1135.66773741 -0.02173402 C1138.75748721 0.01151504 1140.96933222 0.22111025 1143.72651011 1.66796782 C1146.31437682 4.5418727 1145.77184801 8.02715869 1145.6903668 11.69245374 C1145.68707869 12.50471921 1145.68379057 13.31698469 1145.68040282 14.15386426 C1145.669985 15.8695271 1145.65003999 17.58515472 1145.62127501 19.30060804 C1145.57719406 21.9320703 1145.55983966 24.56262108 1145.54778868 27.19440687 C1145.53436483 28.8604357 1145.51944192 30.52645328 1145.5028668 32.19245374 C1145.49547987 32.98204984 1145.48809294 33.77164594 1145.48048216 34.5851692 C1145.38295103 40.13931654 1145.38295103 40.13931654 1144.26458555 42.37604749 C1109.06634349 42.38704351 1073.8681013 42.39758743 1038.66985899 42.40778577 C1037.98111768 42.40798537 1037.29237637 42.40818496 1036.58276412 42.40839061 C962.80037473 42.42976025 889.0179853 42.44820776 815.23559386 42.46073377 C813.59715377 42.46101267 811.95871369 42.46129158 810.3202736 42.46157048 C775.93087821 42.46741554 741.54148275 42.472849 707.15208722 42.47780685 C689.87779787 42.48029769 672.60350854 42.48286763 655.32921922 42.48551238 C652.72341716 42.48591087 650.11761511 42.48630711 647.51181305 42.48670325 C607.37424754 42.49282503 567.23668325 42.50064605 527.09911925 42.51337659 C526.23577226 42.51365039 525.37242527 42.51392419 524.48291625 42.51420628 C510.56272927 42.51863116 496.64254234 42.52319833 482.72235542 42.52778437 C442.64013044 42.5409874 402.55790639 42.55314267 362.47567946 42.55832708 C361.65185396 42.55843415 360.82802847 42.55854122 359.97923857 42.55865153 C341.89660541 42.56098277 323.81397223 42.56277261 305.73133897 42.56404946 C298.45608744 42.56457272 291.18083592 42.56517396 283.90558439 42.56580198 C283.10932748 42.56586883 282.31307056 42.56593569 281.49268464 42.56600457 C255.81441007 42.56819936 230.13614242 42.57674793 204.45787064 42.58861191 C178.60249226 42.60052874 152.74712059 42.60624949 126.89173939 42.60329547 C123.32285217 42.60288928 119.75396495 42.60255452 116.18507773 42.60226285 C115.48544345 42.60220309 114.78580917 42.60214333 114.06497385 42.60208176 C102.96430797 42.60131897 91.86365625 42.60730238 80.76299424 42.61606722 C69.8608616 42.62453777 58.95874505 42.62577457 48.05661029 42.61971112 C42.2190966 42.61667412 36.38163048 42.616892 30.54412177 42.62581386 C25.2425838 42.6338555 19.94113091 42.63283775 14.63959438 42.62432744 C12.72494912 42.62288891 10.81029776 42.62486539 8.8956603 42.63051798 C6.3108761 42.63767034 3.7263994 42.63265824 1.14162523 42.62444448 C0.39286021 42.62946224 -0.35590481 42.63447999 -1.12735967 42.6396498 C-4.82347135 42.61432788 -7.59569094 42.42619712 -10.73541445 40.37604749 C-10.8095421 35.16164236 -10.86400549 29.94754356 -10.90020937 24.73273695 C-10.91530086 22.95859406 -10.93577636 21.18448851 -10.9617328 19.41047132 C-10.99810085 16.86114262 -11.01513683 14.3123069 -11.0283832 11.76276624 C-11.04386705 10.96892026 -11.05935091 10.17507429 -11.07530397 9.35717237 C-11.07696189 3.93882937 -11.07696189 3.93882937 -9.69759184 1.66598418 C-6.65454899 -0.33451415 -3.52216101 -0.03370556 0 0 Z M-7.73541445 5.37604749 C-7.9105183 8.02896506 -7.96696927 10.57590923 -7.93072695 13.22760999 C-7.92789705 14.00164167 -7.92506716 14.77567335 -7.92215151 15.57316053 C-7.91094198 18.04927906 -7.88583647 20.52503799 -7.86041445 23.00104749 C-7.85038562 24.67812561 -7.8412596 26.35520938 -7.8330707 28.03229749 C-7.81100018 32.14701972 -7.77646546 36.26147261 -7.73541445 40.37604749 C-4.67995077 41.90377933 -1.49323674 41.51270129 1.85886675 41.50254732 C2.65698817 41.50407387 3.4551096 41.50560042 4.27741652 41.50717323 C6.98582954 41.51110933 9.6941879 41.50784273 12.4026013 41.50468194 C14.35874784 41.50602696 16.31489412 41.50780992 18.2710399 41.50999418 C23.6930474 41.51475429 29.11503824 41.51321286 34.5370466 41.51071641 C40.41809733 41.50909177 46.29914438 41.51321707 52.18019396 41.51662558 C62.50289755 41.52179467 72.82559757 41.52322884 83.14830214 41.52216947 C94.22895885 41.52104662 105.30961219 41.5220735 116.39026839 41.52574193 C117.08911701 41.52597159 117.78796564 41.52620124 118.50799149 41.52643785 C121.35410945 41.52737945 124.2002274 41.52833513 127.04634534 41.52930904 C156.76724192 41.5394644 186.48813662 41.54251543 216.20903474 41.54310115 C219.41010656 41.5431659 222.61117838 41.54323384 225.8122502 41.54330456 C226.60655657 41.54332157 227.40086294 41.54333857 228.2192392 41.54335609 C245.80444854 41.54376418 263.38965752 41.5459529 280.97486666 41.54846041 C288.21097394 41.54948873 295.44708122 41.55047875 302.6831885 41.55147666 C303.88239916 41.55164254 303.88239916 41.55164254 305.1058363 41.55181178 C350.93214437 41.55813766 396.7584522 41.56226069 442.58476073 41.56180322 C444.30049344 41.56178744 446.01622616 41.56177171 447.73195887 41.56175601 C455.4787393 41.56168263 463.22551973 41.56159446 470.97230015 41.56150213 C474.42694796 41.561461 477.88159578 41.56142086 481.33624359 41.56138082 C483.06535873 41.56136042 484.79447386 41.5613394 486.52358899 41.56131776 C541.21557759 41.56063732 595.90755971 41.56795744 650.59954649 41.58185804 C664.38116777 41.58535887 678.16278905 41.58882825 691.94441038 41.59212244 C693.21718196 41.59242675 693.21718196 41.59242675 694.51566609 41.59273721 C720.65356574 41.59894891 746.79146486 41.60271713 772.92936522 41.60398042 C774.1596932 41.60404035 774.1596932 41.60404035 775.4148763 41.60410148 C793.41769581 41.60495462 811.42051528 41.605216 829.42333481 41.60493111 C835.86450598 41.60483462 842.30567715 41.60478258 848.74684832 41.60475238 C850.3493337 41.60474447 851.95181907 41.60473426 853.55430444 41.60472176 C879.12286511 41.6045452 904.69142025 41.61025296 930.25997933 41.61887557 C956.00093042 41.62751222 981.74187384 41.62972819 1007.48282577 41.62311425 C1011.03485141 41.62220187 1014.58687706 41.62135861 1018.13890272 41.62055624 C1018.83523786 41.62039615 1019.531573 41.62023606 1020.24900921 41.62007112 C1031.30285438 41.61771233 1042.35668635 41.62208899 1053.41052904 41.62922742 C1064.26328347 41.63609647 1075.11602063 41.63573091 1085.96877503 41.62803529 C1091.7811826 41.62412103 1097.59354298 41.62347097 1103.40594739 41.63149264 C1108.6823407 41.63871136 1113.95864704 41.63690697 1119.23503633 41.62756877 C1121.14281644 41.62583202 1123.05060316 41.62752521 1124.95837657 41.63286998 C1127.52912783 41.63959585 1130.09956587 41.6342287 1132.67030436 41.62559515 C1133.79567971 41.63294458 1133.79567971 41.63294458 1134.94378992 41.64044248 C1139.05724482 41.73913205 1139.05724482 41.73913205 1142.26458555 39.37604749 C1142.45193362 36.8183227 1142.52032699 34.37092338 1142.4950543 31.81354749 C1142.49459608 31.06645521 1142.49413786 30.31936292 1142.49366575 29.54963148 C1142.49064331 27.96929307 1142.48275719 26.38895764 1142.4703961 24.80866468 C1142.45215826 22.38570609 1142.44988629 19.96313 1142.45013243 17.54010999 C1142.44521648 16.00625251 1142.43938782 14.47239763 1142.4325543 12.93854749 C1142.43144148 12.21143568 1142.43032866 11.48432386 1142.42918211 10.73517835 C1142.45499255 6.92922479 1142.45499255 6.92922479 1141.26458555 3.37604749 C1106.1781599 3.3650516 1071.09173411 3.35450767 1036.00530821 3.34430921 C1034.97548925 3.34400982 1034.97548925 3.34400982 1033.92486586 3.34370438 C960.38156146 3.32233587 886.83825702 3.30388805 813.29495054 3.29136121 C811.66192747 3.29108231 810.02890439 3.29080341 808.39588131 3.2905245 C774.12062277 3.28467952 739.84536418 3.27924605 705.57010551 3.27428814 C688.35329779 3.27179729 671.13649008 3.26922734 653.91968239 3.26658261 C651.32254191 3.26618411 648.72540144 3.26578788 646.12826097 3.26539173 C606.12135377 3.25926954 566.11444779 3.25144772 526.1075421 3.23871839 C525.24692355 3.23844459 524.38630501 3.2381708 523.49960711 3.2378887 C509.62330154 3.23346379 495.74699601 3.22889664 481.87069049 3.22431061 C441.91765068 3.21110857 401.96461181 3.19895296 362.01157004 3.19376791 C360.77996679 3.1936073 360.77996679 3.1936073 359.52348268 3.19344345 C341.50190418 3.19111228 323.48032568 3.18932241 305.45874708 3.18804553 C298.20819868 3.18752226 290.95765028 3.18692102 283.70710188 3.18629301 C282.91354576 3.18622615 282.11998963 3.1861593 281.30238635 3.18609042 C255.7058665 3.18389517 230.10935358 3.17534506 204.51283653 3.16348308 C178.74245125 3.15156946 152.97207271 3.1458446 127.20168461 3.14879952 C123.64554194 3.14920571 120.08939927 3.14954046 116.53325659 3.14983213 C115.48754128 3.14992177 115.48754128 3.14992177 114.42070041 3.15001322 C103.35398255 3.15077638 92.28727888 3.14478938 81.22056489 3.13602777 C70.35511354 3.12756283 59.48967833 3.12631638 48.62422486 3.13238386 C42.80497771 3.13542349 36.98577828 3.13519251 31.16653611 3.12628113 C25.88391404 3.11825236 20.60137743 3.11924439 15.31875683 3.12776754 C13.40871625 3.1292087 11.49866958 3.12721907 9.58863679 3.121577 C7.0148441 3.11444988 4.44136244 3.11941708 1.86758012 3.1276505 C0.74086148 3.12012387 0.74086148 3.12012387 -0.40861915 3.11244518 C-4.52526971 3.01246639 -4.52526971 3.01246639 -7.73541445 5.37604749 Z " fill="#8D9BDC" transform="translate(107.73541444540024,224.62395250797272)"/>
<path d="M0 0 C4.29 0 8.58 0 13 0 C13 112.86 13 225.72 13 342 C8.71 342 4.42 342 0 342 C0 229.14 0 116.28 0 0 Z " fill="#C1C1C1" transform="translate(1351,20)"/>
<path d="M0 0 C570.735 0.495 570.735 0.495 1153 1 C1150.5119769 3.4880231 1149.06093875 3.24093339 1145.66596149 3.26598036 C1144.91373349 3.26131701 1144.1615055 3.25665366 1143.38648272 3.251849 C1142.58627801 3.25477786 1141.78607331 3.25770673 1140.96161998 3.26072434 C1138.24605037 3.26817546 1135.53070106 3.26121935 1132.81513214 3.25447559 C1130.85386843 3.25686254 1128.89260563 3.26012584 1126.93134469 3.26419219 C1121.49511452 3.2728764 1116.05895269 3.26895938 1110.62272134 3.26313647 C1104.72626778 3.25899047 1098.82982726 3.26635422 1092.93337679 3.27228898 C1082.58363249 3.28108235 1072.23390353 3.28242029 1061.88415718 3.27878571 C1050.77447124 3.27491536 1039.66479811 3.27535511 1028.55511284 3.2810955 C1027.85443439 3.28145433 1027.15375594 3.28181316 1026.43184481 3.28218286 C1023.57827489 3.2836577 1020.72470499 3.28516208 1017.87113511 3.28670432 C988.8727426 3.30235828 959.87435888 3.30501623 930.8759629 3.30254826 C926.86615796 3.30220983 922.85635302 3.30188773 918.84654808 3.30158257 C918.05016097 3.30152153 917.25377386 3.30146049 916.43325381 3.30139759 C898.80198967 3.30012693 881.17072675 3.30272482 863.53946298 3.30610864 C859.51639681 3.30687938 855.49333064 3.3076241 851.47026446 3.30837366 C849.85571169 3.30867535 848.24115891 3.30897723 846.62660613 3.3092793 C845.82631577 3.30942898 845.02602541 3.30957866 844.20148382 3.30973287 C842.58275815 3.3100364 840.96403248 3.31034108 839.34530681 3.31064692 C793.39899461 3.31932316 747.45268347 3.3239615 701.50637054 3.31969929 C700.65512685 3.31962123 699.80388315 3.31954317 698.92684419 3.31946275 C689.43402253 3.31858991 679.94120087 3.31766065 670.44837922 3.31671212 C669.16272318 3.31658385 669.16272318 3.31658385 667.8510943 3.316453 C660.72817343 3.3157421 660.72817343 3.3157421 657.45246451 3.31541077 C602.61722883 3.30987377 547.78200998 3.3174193 492.94677734 3.33618164 C479.12906142 3.3409036 465.31134548 3.34558401 451.49362946 3.3500185 C450.21752449 3.35042848 450.21752449 3.35042848 448.91563962 3.35084675 C422.70929063 3.35921372 396.50294303 3.3638973 370.29659271 3.36472607 C369.47422626 3.36475243 368.6518598 3.3647788 367.80457315 3.36480596 C349.75461311 3.36534666 331.70465319 3.36497448 313.65469319 3.36376625 C307.19665596 3.3633406 300.73861873 3.36297548 294.2805815 3.36263681 C292.67390001 3.36255151 291.06721851 3.36246257 289.46053702 3.36236999 C263.82500613 3.36091929 238.18948665 3.36805991 212.5539585 3.37937395 C186.02892763 3.39100478 159.50391719 3.3916088 132.97888625 3.37953053 C130.1342199 3.37827861 127.28955354 3.37707514 124.44488716 3.37590981 C123.74672879 3.37561951 123.04857041 3.37532922 122.32925572 3.37503013 C111.24644725 3.37069412 100.16366767 3.37645396 89.08086374 3.38635 C78.19967934 3.39585562 67.31853457 3.39450129 56.43735187 3.38214377 C50.60969839 3.37583504 44.78215037 3.37441948 38.95450264 3.38600711 C33.66425517 3.3964302 28.37420395 3.39331756 23.08396742 3.37890258 C21.17118655 3.37614965 19.25839043 3.3785413 17.34562375 3.38640973 C14.76801004 3.39629833 12.19110055 3.3880479 9.61351728 3.37489682 C8.48517529 3.38583237 8.48517529 3.38583237 7.33403851 3.39698883 C5.27104923 3.37495883 5.27104923 3.37495883 2 3 C1.34 2.01 0.68 1.02 0 0 Z " fill="#D1D7F1" transform="translate(98,266)"/>
<path d="M0 0 C1.93886856 2.52895899 2.00575405 3.72955988 1.9375 6.9375 C0.73180141 10.87611541 -0.79958453 12.42575278 -4 15 C-12.81033969 19.40516985 -21.72058916 20.39466304 -31.25 17.75 C-36.08618971 16.13033269 -40.3344934 14.34685021 -43.375 10.0625 C-44.17814438 7.41212355 -44.4707793 5.7574216 -44 3 C-40.01364417 -2.1075184 -34.70649921 -4.82952657 -28.625 -6.75 C-18.22789341 -7.74020063 -8.32673936 -6.86955997 0 0 Z " fill="#B2AFE6" transform="translate(90,39)"/>
<path d="M0 0 C3.25889497 2.66032242 4.6222306 4.111153 5.4375 8.1875 C5.73550999 13.70068476 4.46605295 16.77574796 1 21 C1.61875 21.28875 2.2375 21.5775 2.875 21.875 C5 23 5 23 7 25 C4.125 25.125 4.125 25.125 1 25 C0.34 24.34 -0.32 23.68 -1 23 C-2.59307012 22.6701076 -4.20056424 22.40741927 -5.8125 22.1875 C-9.23181083 21.52442091 -11.10723243 20.93351589 -14.125 19.0625 C-16.9292448 14.4822335 -17.00495257 10.22889383 -16 5 C-11.36373766 -1.10034518 -7.17468142 -1.96685232 0 0 Z " fill="#474346" transform="translate(352,352)"/>
<path d="M0 0 C4.52671196 0.53255435 7.4200555 2.21559872 11 5 C12.93886856 7.52895899 13.00575405 8.72955988 12.9375 11.9375 C11.35121074 17.11937825 8.29546388 19.30428792 3.625 21.8125 C-0.14680299 23.04809063 -3.05958167 23.2412501 -7 23 C-7.33 22.34 -7.66 21.68 -8 21 C-8.99 21.33 -9.98 21.66 -11 22 C-11.309375 21.13375 -11.309375 21.13375 -11.625 20.25 C-12.95228665 17.7092613 -12.95228665 17.7092613 -16.125 16 C-17.07375 15.34 -18.0225 14.68 -19 14 C-19 10 -19 10 -18 8 C-17.01 8 -16.02 8 -15 8 C-14.67 6.68 -14.34 5.36 -14 4 C-13.34 4.66 -12.68 5.32 -12 6 C-10.13940751 6.49520385 -8.26064597 6.92343634 -6.375 7.3125 C-1.38371929 8.47633228 2.32101882 10.03971599 6.4765625 13.01171875 C7.97699176 14.18141068 7.97699176 14.18141068 10 14 C10.50265692 11.21160696 10.50265692 11.21160696 10 8 C7.29671417 5.21939532 7.29671417 5.21939532 4 3 C3.21625 2.401875 2.4325 1.80375 1.625 1.1875 C1.08875 0.795625 0.5525 0.40375 0 0 Z " fill="#9F9AD8" transform="translate(79,34)"/>
<path d="M0 0 C1.32 0 2.64 0 4 0 C4 7.92 4 15.84 4 24 C2.35 23.67 0.7 23.34 -1 23 C-2.175625 23.2475 -3.35125 23.495 -4.5625 23.75 C-8 24 -8 24 -10.4375 21.9375 C-12.26905356 18.49417931 -12.71934592 16.83651157 -12 13 C-9.875 10.0625 -9.875 10.0625 -7 8 C-3.6875 8.1875 -3.6875 8.1875 -1 9 C-0.67 6.03 -0.34 3.06 0 0 Z " fill="#484B53" transform="translate(292,350)"/>
<path d="M0 0 C1.32 0 2.64 0 4 0 C4.33 2.97 4.66 5.94 5 9 C6.0725 8.7525 7.145 8.505 8.25 8.25 C12 8 12 8 14.4375 9.5625 C16.44505874 12.69429164 16.52365467 14.33441734 16 18 C14.9375 20.8125 14.9375 20.8125 13 23 C8.58115573 24.00780659 4.50702224 24 0 24 C0 16.08 0 8.16 0 0 Z " fill="#49474D" transform="translate(188,142)"/>
<path d="M0 0 C0.99 0 1.98 0 3 0 C3 7.92 3 15.84 3 24 C2.01 24 1.02 24 0 24 C-0.33 23.34 -0.66 22.68 -1 22 C-1.66 22.66 -2.32 23.32 -3 24 C-6.5 23.8125 -6.5 23.8125 -10 23 C-12.45996614 19.3100508 -12.67949564 16.28340287 -12 12 C-10.4375 9.4375 -10.4375 9.4375 -8 8 C-4.25 8.25 -4.25 8.25 -1 9 C-0.67 6.03 -0.34 3.06 0 0 Z " fill="#453D3E" transform="translate(324,142)"/>
<path d="M0 0 C0.99 0 1.98 0 3 0 C3.33 3.3 3.66 6.6 4 10 C4.66 9.34 5.32 8.68 6 8 C12.46153846 8.46153846 12.46153846 8.46153846 15 11 C15.5673295 15.94387137 15.74196918 17.93069148 12.875 22.0625 C10 24 10 24 6.9375 23.75 C5.968125 23.5025 4.99875 23.255 4 23 C2.68 23.33 1.36 23.66 0 24 C0 16.08 0 8.16 0 0 Z " fill="#373638" transform="translate(188,350)"/>
<path d="M0 0 C1.65 0 3.3 0 5 0 C6.1773496 3.07935966 7.33997891 6.16407516 8.5 9.25 C8.83386719 10.12269531 9.16773438 10.99539063 9.51171875 11.89453125 C9.82753906 12.73886719 10.14335937 13.58320313 10.46875 14.453125 C10.90864258 15.61569824 10.90864258 15.61569824 11.35742188 16.80175781 C12 19 12 19 12 23 C10.68 22.67 9.36 22.34 8 22 C7.67 20.35 7.34 18.7 7 17 C3.7 17 0.4 17 -3 17 C-3.33 18.98 -3.66 20.96 -4 23 C-5.32 23 -6.64 23 -8 23 C-5.81659819 15.13620323 -3.00714974 7.58324716 0 0 Z " fill="#474248" transform="translate(247,351)"/>
<path d="M0 0 C1.65 0 3.3 0 5 0 C6.1773496 3.07935966 7.33997891 6.16407516 8.5 9.25 C8.83386719 10.12269531 9.16773437 10.99539063 9.51171875 11.89453125 C9.82753906 12.73886719 10.14335938 13.58320313 10.46875 14.453125 C10.90864258 15.61569824 10.90864258 15.61569824 11.35742188 16.80175781 C12 19 12 19 12 23 C10.68 22.67 9.36 22.34 8 22 C7.67 20.35 7.34 18.7 7 17 C3.7 17 0.4 17 -3 17 C-3.33 18.98 -3.66 20.96 -4 23 C-5.32 23 -6.64 23 -8 23 C-5.81659819 15.13620323 -3.00714974 7.58324716 0 0 Z " fill="#474248" transform="translate(107,351)"/>
<path d="M0 0 C1.65 0 3.3 0 5 0 C6.15268129 2.89315371 7.29590743 5.78995487 8.4375 8.6875 C8.92573242 9.91243164 8.92573242 9.91243164 9.42382812 11.16210938 C10.96339769 15.08245663 12.39344895 18.80540049 13 23 C11.68 23 10.36 23 9 23 C8.67 21.02 8.34 19.04 8 17 C3.05 17.495 3.05 17.495 -2 18 C-2.99 20.475 -2.99 20.475 -4 23 C-4.99 23 -5.98 23 -7 23 C-6.33654156 17.74272175 -4.74419696 13.07140932 -2.9375 8.125 C-2.65583984 7.34125 -2.37417969 6.5575 -2.08398438 5.75 C-1.39386218 3.83169424 -0.69755684 1.91561481 0 0 Z " fill="#454146" transform="translate(278,143)"/>
<path d="M0 0 C2.03125 0.63671875 2.03125 0.63671875 4.15625 2.26171875 C5.43057486 5.72060051 4.93046842 8.10407496 4.03125 11.63671875 C2.45239034 13.69610091 1.33982577 14.48243086 -0.96875 15.63671875 C-4.48794011 16.01923941 -6.31011037 16.08174553 -9.28125 14.07421875 C-11.55446574 10.79068491 -12.03878547 8.62874066 -11.96875 4.63671875 C-8.72455945 -0.55398612 -5.65594299 -1.02749631 0 0 Z " fill="#404952" transform="translate(350.96875,150.36328125)"/>
<path d="M0 0 C2.875 1.5625 2.875 1.5625 5 4 C5.625 7.4375 5.625 7.4375 5 11 C2.9375 13.9375 2.9375 13.9375 0 16 C-3.95779649 16.62491523 -6.00863886 16.61006839 -9.4375 14.5 C-11.33241448 11.46813683 -11.64036692 9.43919544 -11.44921875 5.90625 C-11 4 -11 4 -8.875 1.5 C-5.48749667 -0.26739304 -3.7664742 -0.6277457 0 0 Z " fill="#47484E" transform="translate(319,358)"/>
<path d="M0 0 C1.98828125 0.6875 1.98828125 0.6875 3.98828125 3.6875 C4.32330445 6.70270879 4.55432844 8.78723758 3.98828125 11.6875 C1.44595417 14.67847304 -0.16918845 15.52952557 -4.01171875 16.25 C-8.11561488 15.48051948 -9.55131147 14.01628632 -12.01171875 10.6875 C-12.63671875 7.6875 -12.63671875 7.6875 -12.01171875 4.6875 C-8.56697918 -0.53516967 -5.76552412 -0.77519652 0 0 Z " fill="#444140" transform="translate(399.01171875,150.3125)"/>
<path d="M0 0 C2.875 1.5625 2.875 1.5625 5 4 C5.625 7.4375 5.625 7.4375 5 11 C2.9375 13.9375 2.9375 13.9375 0 16 C-3.95779649 16.62491523 -6.00863886 16.61006839 -9.4375 14.5 C-11.33241448 11.46813683 -11.64036692 9.43919544 -11.44921875 5.90625 C-11 4 -11 4 -8.875 1.5 C-5.48749667 -0.26739304 -3.7664742 -0.6277457 0 0 Z " fill="#47484E" transform="translate(255,150)"/>
<path d="M0 0 C2.875 1.5625 2.875 1.5625 5 4 C5.625 7.4375 5.625 7.4375 5 11 C2.9375 13.9375 2.9375 13.9375 0 16 C-3.95779649 16.62491523 -6.00863886 16.61006839 -9.4375 14.5 C-11.33241448 11.46813683 -11.64036692 9.43919544 -11.44921875 5.90625 C-11 4 -11 4 -8.875 1.5 C-5.48749667 -0.26739304 -3.7664742 -0.6277457 0 0 Z " fill="#47484E" transform="translate(127,150)"/>
<path d="M0 0 C4.30279717 0.08208834 4.30279717 0.08208834 6.6875 2.25 C7.99915526 6.62218421 8.06166786 10.84037222 7.625 15.375 C6.625 16.375 6.625 16.375 4.15625 16.5078125 C2.65578125 16.50394531 2.65578125 16.50394531 1.125 16.5 C0.1246875 16.50257813 -0.875625 16.50515625 -1.90625 16.5078125 C-4.375 16.375 -4.375 16.375 -5.375 15.375 C-5.47409302 13.04339945 -5.50470504 10.70870058 -5.5 8.375 C-5.50257812 7.09625 -5.50515625 5.8175 -5.5078125 4.5 C-5.31141625 -0.12108824 -4.26296898 0.17934821 0 0 Z " fill="#CEF6F1" transform="translate(117.375,290.625)"/>
<path d="M0 0 C1.51400391 0.01740234 1.51400391 0.01740234 3.05859375 0.03515625 C4.07050781 0.04417969 5.08242187 0.05320313 6.125 0.0625 C7.29869141 0.07990234 7.29869141 0.07990234 8.49609375 0.09765625 C8.49609375 0.75765625 8.49609375 1.41765625 8.49609375 2.09765625 C9.38296875 2.32453125 10.26984375 2.55140625 11.18359375 2.78515625 C15.05271306 4.31820352 16.95513613 5.80935815 19.49609375 9.09765625 C19.80859375 12.41015625 19.80859375 12.41015625 19.49609375 15.09765625 C15.38850083 15.09765625 14.10990274 14.60291779 10.62109375 12.72265625 C6.96502164 10.80834121 3.42494375 9.3745325 -0.50390625 8.09765625 C-2.86947334 5.73208916 -3.08634666 4.35462104 -3.50390625 1.09765625 C-2.50390625 0.09765625 -2.50390625 0.09765625 0 0 Z " fill="#B5B4ED" transform="translate(70.50390625,32.90234375)"/>
<path d="M0 0 C2.08133467 3.122002 2.2737822 3.93266989 2.25 7.5 C2.25515625 8.2734375 2.2603125 9.046875 2.265625 9.84375 C2 12 2 12 0 15 C-3.79763087 16.05489746 -5.93733207 16.5994537 -9.4375 14.625 C-11.72821848 10.77659295 -11.77593406 7.36762884 -11 3 C-8.11286469 -1.85038732 -5.13544698 -1.42651305 0 0 Z " fill="#F6F7F6" transform="translate(351,355)"/>
<path d="M0 0 C2.1796875 1.09765625 2.1796875 1.09765625 4 3 C4.390625 6.13671875 4.390625 6.13671875 4.25 9.6875 C4.21390625 10.86699219 4.1778125 12.04648437 4.140625 13.26171875 C4.07101563 14.61716797 4.07101563 14.61716797 4 16 C2.85917969 15.73509766 2.85917969 15.73509766 1.6953125 15.46484375 C-1.07286417 14.82930406 -1.07286417 14.82930406 -4.125 15.5625 C-7 16 -7 16 -10 14 C-9.67 12.02 -9.34 10.04 -9 8 C-6.03 7.34 -3.06 6.68 0 6 C-0.33 5.34 -0.66 4.68 -1 4 C-3.31 4 -5.62 4 -8 4 C-8 3.01 -8 2.02 -8 1 C-5.19084526 -0.40457737 -3.11189466 -0.24895157 0 0 Z " fill="#474A52" transform="translate(146,358)"/>
<path d="M0 0 C3.61546049 0.69232222 4.82975302 1.56301391 6.9375 4.5625 C6.9375 6.2125 6.9375 7.8625 6.9375 9.5625 C3.3075 9.5625 -0.3225 9.5625 -4.0625 9.5625 C-3.0725 11.0475 -3.0725 11.0475 -2.0625 12.5625 C-0.08502878 12.92547936 -0.08502878 12.92547936 2.0625 12.75 C3.34125 12.688125 4.62 12.62625 5.9375 12.5625 C5.9375 13.5525 5.9375 14.5425 5.9375 15.5625 C2.90977966 16.2287304 0.04312014 16.67675358 -3.0625 16.5625 C-6.60780418 14.17484617 -7.81551412 12.7480322 -8.6875 8.5625 C-7.63783559 3.52411085 -5.07009643 0.9312422 0 0 Z " fill="#525051" transform="translate(222.0625,357.4375)"/>
<path d="M0 0 C1.7109375 1.09765625 1.7109375 1.09765625 3 3 C3.29296875 6.13671875 3.29296875 6.13671875 3.1875 9.6875 C3.16042969 10.86699219 3.13335937 12.04648437 3.10546875 13.26171875 C3.07066406 14.16535156 3.03585937 15.06898438 3 16 C2.195625 15.814375 1.39125 15.62875 0.5625 15.4375 C-0.283125 15.293125 -1.12875 15.14875 -2 15 C-2.33 15.33 -2.66 15.66 -3 16 C-5.4375 16.1875 -5.4375 16.1875 -8 16 C-10 14 -10 14 -10.25 11.5 C-10 9 -10 9 -8 7 C-5.67724823 6.59952556 -3.34260643 6.2602896 -1 6 C-1 5.01 -1 4.02 -1 3 C-3.64 3.33 -6.28 3.66 -9 4 C-9 3.01 -9 2.02 -9 1 C-5.95016004 -0.52491998 -3.3576631 -0.23562548 0 0 Z " fill="#4F4B50" transform="translate(389,358)"/>
<path d="M0 0 C1.7109375 1.09765625 1.7109375 1.09765625 3 3 C3.29296875 6.13671875 3.29296875 6.13671875 3.1875 9.6875 C3.16042969 10.86699219 3.13335937 12.04648437 3.10546875 13.26171875 C3.07066406 14.16535156 3.03585938 15.06898438 3 16 C2.41476563 15.82339844 1.82953125 15.64679688 1.2265625 15.46484375 C-1.22388185 14.81692202 -1.22388185 14.81692202 -4.625 15.5625 C-6.295625 15.7790625 -6.295625 15.7790625 -8 16 C-10 14 -10 14 -10.4375 11.5625 C-10 9 -10 9 -7.8125 7.1875 C-4.92808899 5.96963757 -3.08954177 5.73518213 0 6 C-0.33 5.34 -0.66 4.68 -1 4 C-3.64 4 -6.28 4 -9 4 C-9 3.01 -9 2.02 -9 1 C-5.95016004 -0.52491998 -3.3576631 -0.23562548 0 0 Z " fill="#514847" transform="translate(180,358)"/>
<path d="M0 0 C1.9375 1.8125 1.9375 1.8125 3 4 C3 5.32 3 6.64 3 8 C-0.63 8 -4.26 8 -8 8 C-7.67 8.99 -7.34 9.98 -7 11 C-4.36 11.33 -1.72 11.66 1 12 C1 12.66 1 13.32 1 14 C-2.12860495 15.56430248 -4.55602925 15.35627284 -8 15 C-11.21279089 12.28148463 -11.90640581 10.59276322 -12.5625 6.4375 C-12 3 -12 3 -9.9375 0.5 C-6.08739354 -1.46601181 -4.10799908 -1.21718491 0 0 Z " fill="#4A4E52" transform="translate(444,359)"/>
<path d="M0 0 C1.9375 1.8125 1.9375 1.8125 3 4 C3 5.32 3 6.64 3 8 C-0.63 8 -4.26 8 -8 8 C-7.67 8.99 -7.34 9.98 -7 11 C-4.36 11.33 -1.72 11.66 1 12 C1 12.66 1 13.32 1 14 C-2.12860495 15.56430248 -4.55602925 15.35627284 -8 15 C-11.21279089 12.28148463 -11.90640581 10.59276322 -12.5625 6.4375 C-12 3 -12 3 -9.9375 0.5 C-6.08739354 -1.46601181 -4.10799908 -1.21718491 0 0 Z " fill="#4A4E52" transform="translate(494,151)"/>
<path d="M0 0 C1.9375 1.8125 1.9375 1.8125 3 4 C3 5.32 3 6.64 3 8 C-0.63 8 -4.26 8 -8 8 C-7.67 8.99 -7.34 9.98 -7 11 C-4.36 11.33 -1.72 11.66 1 12 C1 12.66 1 13.32 1 14 C-2.12860495 15.56430248 -4.55602925 15.35627284 -8 15 C-11.21279089 12.28148463 -11.90640581 10.59276322 -12.5625 6.4375 C-12 3 -12 3 -9.9375 0.5 C-6.08739354 -1.46601181 -4.10799908 -1.21718491 0 0 Z " fill="#4A4E52" transform="translate(453,151)"/>
<path d="M0 0 C2.375 1.6875 2.375 1.6875 4 4 C4 5.65 4 7.3 4 9 C0.37 9 -3.26 9 -7 9 C-6.01 10.485 -6.01 10.485 -5 12 C-3.02252878 12.36297936 -3.02252878 12.36297936 -0.875 12.1875 C0.40375 12.125625 1.6825 12.06375 3 12 C3 12.99 3 13.98 3 15 C-4.85092918 16.39236565 -4.85092918 16.39236565 -8.5625 15.125 C-10.92503755 11.63255318 -10.71966103 8.06828788 -10 4 C-7.35478334 -0.1713032 -4.79556761 -0.79926127 0 0 Z " fill="#49484F" transform="translate(217,150)"/>
<path d="M0 0 C0.33 0 0.66 0 1 0 C1 3.96 1 7.92 1 12 C-7 12 -15 12 -23 12 C-22.67 11.34 -22.34 10.68 -22 10 C-21.01 10 -20.02 10 -19 10 C-19 8.68 -19 7.36 -19 6 C-19.99 5.34 -20.98 4.68 -22 4 C-20.948125 4.185625 -19.89625 4.37125 -18.8125 4.5625 C-15.36174976 4.95848773 -13.30963541 4.71559684 -10 4 C-8.66666667 4.33333333 -7.33333333 4.66666667 -6 5 C-3.31850007 4.61432869 -3.31850007 4.61432869 -1 4 C-0.67 2.68 -0.34 1.36 0 0 Z " fill="#A79F9B" transform="translate(817,39)"/>
<path d="M0 0 C1.32 0 2.64 0 4 0 C4.33 3.96 4.66 7.92 5 12 C6.65 11.67 8.3 11.34 10 11 C10.33 7.37 10.66 3.74 11 0 C12.32 0 13.64 0 15 0 C15 5.28 15 10.56 15 16 C13.35 15.67 11.7 15.34 10 15 C7.65834501 15.26871451 5.32115711 15.59038404 3 16 C-0.13107836 12.61416198 -0.33550778 10.28890538 -0.1875 5.75 C-0.14689453 4.13351563 -0.14689453 4.13351563 -0.10546875 2.484375 C-0.07066406 1.66453125 -0.03585938 0.8446875 0 0 Z " fill="#594D4A" transform="translate(135,150)"/>
<path d="M0 0 C0.66 0.33 1.32 0.66 2 1 C2 1.99 2 2.98 2 4 C0.7625 3.9175 -0.475 3.835 -1.75 3.75 C-4.80700305 3.76626065 -5.828179 3.89261187 -8.5 5.5625 C-10.58392818 8.94888329 -10.55802097 11.09385318 -10 15 C-8.6469872 17.60314994 -8.6469872 17.60314994 -6 19 C-3.24154167 19.32111824 -0.79456032 19.18630402 2 19 C2 19.99 2 20.98 2 22 C-1.60572704 23.20190901 -4.2102435 23.32670315 -8 23 C-11.40918784 20.87872756 -13.78269305 18.87324937 -15 15 C-15.45295055 10.01754396 -15.1745053 6.94076519 -12 3 C-8.05673864 -0.1765161 -4.98109259 -0.37593152 0 0 Z " fill="#4D4442" transform="translate(382,143)"/>
<path d="M0 0 C0.969375 0.433125 1.93875 0.86625 2.9375 1.3125 C7.20304583 3.14808325 11.57977593 4.58673108 16 6 C15.625 7.9375 15.625 7.9375 15 10 C14.01 10.495 14.01 10.495 13 11 C13 10.34 13 9.68 13 9 C11.02 9.99 11.02 9.99 9 11 C9 11.33 9 11.66 9 12 C5.37 12 1.74 12 -2 12 C-4 8 -4 8 -3.625 5.75 C-3.41875 5.1725 -3.2125 4.595 -3 4 C-2.01 4 -1.02 4 0 4 C0 2.68 0 1.36 0 0 Z " fill="#8E6FA3" transform="translate(64,38)"/>
<path d="M0 0 C2.25 -0.0625 2.25 -0.0625 5 1 C6.71972315 3.91199127 7.7900423 6.81825939 9 10 C10.65 6.7 12.3 3.4 14 0 C15.32 0.33 16.64 0.66 18 1 C17.57847656 1.75023437 17.15695313 2.50046875 16.72265625 3.2734375 C13.15542519 9.93786447 11.03360711 15.4047929 11 23 C9.68 23 8.36 23 7 23 C6.95875 21.783125 6.9175 20.56625 6.875 19.3125 C6.27610185 13.53543635 3.81588706 8.78570923 1.27734375 3.625 C0 1 0 1 0 0 Z " fill="#414853" transform="translate(99,143)"/>
<path d="M0 0 C2.475 0.495 2.475 0.495 5 1 C6.546875 0.7215625 6.546875 0.7215625 8.125 0.4375 C11 0 11 0 14 2 C14.29296875 5.2578125 14.29296875 5.2578125 14.1875 9.125 C14.16042969 10.40632812 14.13335937 11.68765625 14.10546875 13.0078125 C14.07066406 13.99523437 14.03585937 14.98265625 14 16 C13.01 16 12.02 16 11 16 C10.67 12.04 10.34 8.08 10 4 C8.35 4.33 6.7 4.66 5 5 C4.67 8.63 4.34 12.26 4 16 C2.68 16 1.36 16 0 16 C0 10.72 0 5.44 0 0 Z " fill="#564E4B" transform="translate(407,150)"/>
<path d="M0 0 C5.28 0 10.56 0 16 0 C16 0.99 16 1.98 16 3 C14.02 3 12.04 3 10 3 C10 9.6 10 16.2 10 23 C8.68 23 7.36 23 6 23 C6 16.4 6 9.8 6 3 C4.02 3 2.04 3 0 3 C0 2.01 0 1.02 0 0 Z " fill="#443F4A" transform="translate(153,143)"/>
<path d="M0 0 C0.99 0 1.98 0 3 0 C3.33 3.96 3.66 7.92 4 12 C5.65 12 7.3 12 9 12 C9.33 8.04 9.66 4.08 10 0 C11.32 0 12.64 0 14 0 C14 5.28 14 10.56 14 16 C12.35 15.67 10.7 15.34 9 15 C7.96875 15.20625 6.9375 15.4125 5.875 15.625 C3 16 3 16 1.33203125 14.94140625 C-0.63593146 12.07314389 -0.2894319 9.74420718 -0.1875 6.3125 C-0.16042969 5.13300781 -0.13335937 3.95351563 -0.10546875 2.73828125 C-0.07066406 1.83464844 -0.03585937 0.93101562 0 0 Z " fill="#4F4F54" transform="translate(361,358)"/>
<path d="M0 0 C1.32 0 2.64 0 4 0 C4.33 3.96 4.66 7.92 5 12 C6.65 11.67 8.3 11.34 10 11 C10.33 7.37 10.66 3.74 11 0 C11.99 0 12.98 0 14 0 C14 5.28 14 10.56 14 16 C12.68 15.67 11.36 15.34 10 15 C7.65885633 15.27313343 5.32249342 15.59802999 3 16 C-0.13107836 12.61416198 -0.33550778 10.28890538 -0.1875 5.75 C-0.14689453 4.13351562 -0.14689453 4.13351562 -0.10546875 2.484375 C-0.07066406 1.66453125 -0.03585937 0.8446875 0 0 Z " fill="#4C4B54" transform="translate(262,358)"/>
<path d="M0 0 C0.99 0 1.98 0 3 0 C3.33 3.96 3.66 7.92 4 12 C5.65 12 7.3 12 9 12 C9.33 8.04 9.66 4.08 10 0 C11.32 0 12.64 0 14 0 C14 5.28 14 10.56 14 16 C12.35 15.67 10.7 15.34 9 15 C7.96875 15.20625 6.9375 15.4125 5.875 15.625 C3 16 3 16 1.33203125 14.94140625 C-0.63593146 12.07314389 -0.2894319 9.74420718 -0.1875 6.3125 C-0.16042969 5.13300781 -0.13335937 3.95351562 -0.10546875 2.73828125 C-0.07066406 1.83464844 -0.03585937 0.93101562 0 0 Z " fill="#4F4F54" transform="translate(294,150)"/>
<path d="M0 0 C1.32 0 2.64 0 4 0 C4.33 3.96 4.66 7.92 5 12 C6.65 11.67 8.3 11.34 10 11 C10.33 7.37 10.66 3.74 11 0 C11.99 0 12.98 0 14 0 C14 5.28 14 10.56 14 16 C12.68 15.67 11.36 15.34 10 15 C7.65885633 15.27313343 5.32249342 15.59802999 3 16 C-0.13107836 12.61416198 -0.33550778 10.28890538 -0.1875 5.75 C-0.14689453 4.13351563 -0.14689453 4.13351563 -0.10546875 2.484375 C-0.07066406 1.66453125 -0.03585938 0.8446875 0 0 Z " fill="#4C4B54" transform="translate(169,150)"/>
<path d="M0 0 C0.66 0 1.32 0 2 0 C2.33 0.99 2.66 1.98 3 3 C2.67 3.33 2.34 3.66 2 4 C1.83996512 6.66426685 1.74057111 9.30560428 1.68359375 11.97265625 C1.66281265 12.77029892 1.64203156 13.56794159 1.62062073 14.38975525 C1.55503842 16.94724611 1.49620033 19.5048428 1.4375 22.0625 C1.39432301 23.79232882 1.35070899 25.52214679 1.30664062 27.25195312 C1.19934828 31.5011926 1.09810574 35.7505389 1 40 C0.01 39.67 -0.98 39.34 -2 39 C-2.04935824 33.76726669 -2.08569949 28.53466824 -2.10986328 23.30175781 C-2.11993431 21.52080933 -2.13359185 19.73987743 -2.15087891 17.95898438 C-2.17507913 15.40230217 -2.18647184 12.84583815 -2.1953125 10.2890625 C-2.20563507 9.49005524 -2.21595764 8.69104797 -2.22659302 7.86782837 C-2.22699226 5.9104278 -2.12241069 3.95356923 -2 2 C-1.34 1.34 -0.68 0.68 0 0 Z " fill="#A7B2E4" transform="translate(99,226)"/>
<path d="M0 0 C0.66 0 1.32 0 2 0 C2 3.96 2 7.92 2 12 C-2 12 -2 12 -4.4375 11.4375 C-7.26076309 10.95547947 -9.24651432 11.29196083 -12 12 C-12 9.69 -12 7.38 -12 5 C-12.66 4.67 -13.32 4.34 -14 4 C-13.34 4 -12.68 4 -12 4 C-11.67 3.34 -11.34 2.68 -11 2 C-11 2.66 -11 3.32 -11 4 C-7.64896563 5.11701146 -5.40995239 4.737287 -2 4 C-1.67 4.33 -1.34 4.66 -1 5 C-0.67 3.35 -0.34 1.7 0 0 Z " fill="#EEEFEC" transform="translate(333,242)"/>
<path d="M0 0 C0 1.65 0 3.3 0 5 C1.32 5 2.64 5 4 5 C4 5.99 4 6.98 4 8 C2.68 8 1.36 8 0 8 C0 11.3 0 14.6 0 18 C1.32 18 2.64 18 4 18 C4 18.99 4 19.98 4 21 C1.125 21.125 1.125 21.125 -2 21 C-4 19 -4 19 -4.1953125 16.3984375 C-4.17210937 15.40070313 -4.14890625 14.40296875 -4.125 13.375 C-4.10695312 12.37210938 -4.08890625 11.36921875 -4.0703125 10.3359375 C-4.04710937 9.56507813 -4.02390625 8.79421875 -4 8 C-4.66 8 -5.32 8 -6 8 C-6 7.01 -6 6.02 -6 5 C-5.34 5 -4.68 5 -4 5 C-4 3.68 -4 2.36 -4 1 C-2 0 -2 0 0 0 Z " fill="#4F5053" transform="translate(238,145)"/>
<path d="M0 0 C1.32 0 2.64 0 4 0 C4.99 2.97 5.98 5.94 7 9 C8.99097846 6.01353231 9.94124926 3.40312738 11 0 C12.32 0 13.64 0 15 0 C13.43551329 5.6143991 11.83604813 10.86810338 9 16 C7.68 16 6.36 16 5 16 C4.16280617 13.70967689 3.3301071 11.41789043 2.5 9.125 C2.14228516 8.14853516 2.14228516 8.14853516 1.77734375 7.15234375 C0 2.2265625 0 2.2265625 0 0 Z " fill="#534848" transform="translate(120,358)"/>
<path d="M0 0 C1.32 0 2.64 0 4 0 C4 0.66 4 1.32 4 2 C4.556875 1.649375 5.11375 1.29875 5.6875 0.9375 C8.53886783 -0.21845993 10.08517222 0.19032562 13 1 C13.04254356 2.99954746 13.04080783 5.00041636 13 7 C12 8 12 8 9.625 8.1875 C7 8 7 8 4 6 C4 6.66 4 7.32 4 8 C2.35 7.67 0.7 7.34 -1 7 C-1.625 4.625 -1.625 4.625 -2 2 C-1.34 1.34 -0.68 0.68 0 0 Z " fill="#B1A5A3" transform="translate(300,439)"/>
<path d="M0 0 C1.32 0 2.64 0 4 0 C5.32 3.3 6.64 6.6 8 10 C9.32 6.7 10.64 3.4 12 0 C12.99 0 13.98 0 15 0 C13.41078475 5.36095277 11.81027062 10.70843973 10 16 C8.35 16 6.7 16 5 16 C4.16280617 13.70967689 3.3301071 11.41789043 2.5 9.125 C2.14228516 8.14853516 2.14228516 8.14853516 1.77734375 7.15234375 C0 2.2265625 0 2.2265625 0 0 Z " fill="#4E474D" transform="translate(424,150)"/>
<path d="M0 0 C1.875 1.6875 1.875 1.6875 3 4 C2.74303831 6.69809776 2.20824654 8.58350693 1 11 C1.66 11.33 2.32 11.66 3 12 C-4.36603774 11.39622642 -4.36603774 11.39622642 -7 9.75 C-8.39403222 7.31044362 -8.41461694 5.76411292 -8 3 C-5.86922119 -0.25224135 -3.7535559 -0.65687228 0 0 Z " fill="#EAE9E9" transform="translate(478,243)"/>
<path d="M0 0 C1.875 1.6875 1.875 1.6875 3 4 C2.74303831 6.69809776 2.20824654 8.58350693 1 11 C1.66 11.33 2.32 11.66 3 12 C-4.36603774 11.39622642 -4.36603774 11.39622642 -7 9.75 C-8.39403222 7.31044362 -8.41461694 5.76411292 -8 3 C-5.86922119 -0.25224135 -3.7535559 -0.65687228 0 0 Z " fill="#EAE9E9" transform="translate(385,243)"/>
<path d="M0 0 C1.670625 0.061875 1.670625 0.061875 3.375 0.125 C3.375 1.115 3.375 2.105 3.375 3.125 C1.395 3.455 -0.585 3.785 -2.625 4.125 C-1.11836217 7.13827566 1.40666411 7.73556618 4.375 9.125 C4.375 10.775 4.375 12.425 4.375 14.125 C0.9730513 16.21850689 -1.67772412 16.30442163 -5.625 16.125 C-5.955 14.805 -6.285 13.485 -6.625 12.125 C-4.315 12.125 -2.005 12.125 0.375 12.125 C-1.922221 10.38228062 -4.22366729 8.72588848 -6.625 7.125 C-5.84042384 2.15601765 -5.49387562 0.18944399 0 0 Z " fill="#4B4549" transform="translate(455.625,357.875)"/>
<path d="M0 0 C1.32 0 2.64 0 4 0 C4 0.66 4 1.32 4 2 C4.556875 1.649375 5.11375 1.29875 5.6875 0.9375 C8.53886783 -0.21845993 10.08517222 0.19032562 13 1 C13.04254356 2.99954746 13.04080783 5.00041636 13 7 C12 8 12 8 9.4375 8.0625 C8.633125 8.041875 7.82875 8.02125 7 8 C7 7.34 7 6.68 7 6 C6.01 6 5.02 6 4 6 C4 6.66 4 7.32 4 8 C2.35 7.67 0.7 7.34 -1 7 C-1.625 4.625 -1.625 4.625 -2 2 C-1.34 1.34 -0.68 0.68 0 0 Z " fill="#EAE8E8" transform="translate(265,246)"/>
<path d="M0 0 C1.32 0 2.64 0 4 0 C4 7.92 4 15.84 4 24 C2.68 24 1.36 24 0 24 C0 16.08 0 8.16 0 0 Z " fill="#545354" transform="translate(396,350)"/>
<path d="M0 0 C1.32 0 2.64 0 4 0 C4 7.92 4 15.84 4 24 C2.68 24 1.36 24 0 24 C0 16.08 0 8.16 0 0 Z " fill="#5D4D4C" transform="translate(162,350)"/>
<path d="M0 0 C4.875 0.875 4.875 0.875 6 2 C6.23529412 7.52941176 6.23529412 7.52941176 5 10 C4.34 9.67 3.68 9.34 3 9 C3.33 8.34 3.66 7.68 4 7 C2.02 7 0.04 7 -2 7 C-2.66 8.32 -3.32 9.64 -4 11 C-4.66 11 -5.32 11 -6 11 C-6.66 10.01 -7.32 9.02 -8 8 C-8.33 8.99 -8.66 9.98 -9 11 C-9.66 11 -10.32 11 -11 11 C-12.42944945 8.64561267 -13.08661261 7.51967567 -12.625 4.75 C-12.41875 4.1725 -12.2125 3.595 -12 3 C-11.67 4.32 -11.34 5.64 -11 7 C-10.34 7 -9.68 7 -9 7 C-8.67 5.68 -8.34 4.36 -8 3 C-7.34 3.33 -6.68 3.66 -6 4 C-6 4.99 -6 5.98 -6 7 C-5.34 7 -4.68 7 -4 7 C-4 5.68 -4 4.36 -4 3 C-3.34 3 -2.68 3 -2 3 C-1.34 2.01 -0.68 1.02 0 0 Z " fill="#D4D2D5" transform="translate(422,243)"/>
<path d="M0 0 C0 1.65 0 3.3 0 5 C1.32 5 2.64 5 4 5 C4 5.99 4 6.98 4 8 C2.68 8 1.36 8 0 8 C0.33 10.97 0.66 13.94 1 17 C1.99 17.33 2.98 17.66 4 18 C4 18.99 4 19.98 4 21 C1.625 21.125 1.625 21.125 -1 21 C-3 19 -3 19 -3.1953125 16.3984375 C-3.17210937 15.40070313 -3.14890625 14.40296875 -3.125 13.375 C-3.10695313 12.37210937 -3.08890625 11.36921875 -3.0703125 10.3359375 C-3.04710937 9.56507813 -3.02390625 8.79421875 -3 8 C-3.99 8 -4.98 8 -6 8 C-6 7.01 -6 6.02 -6 5 C-5.01 5 -4.02 5 -3 5 C-3 3.68 -3 2.36 -3 1 C-1 0 -1 0 0 0 Z " fill="#4A3E3C" transform="translate(417,353)"/>
<path d="M0 0 C0 1.65 0 3.3 0 5 C1.32 5 2.64 5 4 5 C4 5.99 4 6.98 4 8 C2.68 8 1.36 8 0 8 C0.33 10.97 0.66 13.94 1 17 C1.99 17.33 2.98 17.66 4 18 C4 18.99 4 19.98 4 21 C1.625 21.125 1.625 21.125 -1 21 C-3 19 -3 19 -3.1953125 16.3984375 C-3.17210937 15.40070313 -3.14890625 14.40296875 -3.125 13.375 C-3.10695313 12.37210938 -3.08890625 11.36921875 -3.0703125 10.3359375 C-3.04710937 9.56507813 -3.02390625 8.79421875 -3 8 C-3.99 8 -4.98 8 -6 8 C-6 7.01 -6 6.02 -6 5 C-5.01 5 -4.02 5 -3 5 C-3 3.68 -3 2.36 -3 1 C-1 0 -1 0 0 0 Z " fill="#3F3C3F" transform="translate(476,145)"/>
<path d="M0 0 C3.375 -0.125 3.375 -0.125 7 0 C9 2 9 2 9.3125 5.5 C9.1578125 7.2325 9.1578125 7.2325 9 9 C5.5647952 11.29013653 4.014669 11.17842973 0 11 C0 7.37 0 3.74 0 0 Z " fill="#C1BDBB" transform="translate(748,40)"/>
<path d="M0 0 C0.66 0 1.32 0 2 0 C2.33 1.98 2.66 3.96 3 6 C3.66 5.67 4.32 5.34 5 5 C5.144375 5.78375 5.28875 6.5675 5.4375 7.375 C5.87798925 9.96421018 5.87798925 9.96421018 7 12 C5.68 11.34 4.36 10.68 3 10 C2.67 10.66 2.34 11.32 2 12 C-1.27275026 12 -3.846632 11.70074844 -7 11 C-7.625 8.625 -7.625 8.625 -8 6 C-7.34 5.34 -6.68 4.68 -6 4 C-3.375 4.375 -3.375 4.375 -1 5 C-0.67 3.35 -0.34 1.7 0 0 Z " fill="#CBC7C7" transform="translate(267,435)"/>
<path d="M0 0 C0.99 0 1.98 0 3 0 C3 3.63 3 7.26 3 11 C3.66 11 4.32 11 5 11 C5.02708567 12.60407328 5.04643483 14.2082785 5.0625 15.8125 C5.07410156 16.70582031 5.08570313 17.59914062 5.09765625 18.51953125 C5 21 5 21 4 24 C2.68 24 1.36 24 0 24 C0 16.08 0 8.16 0 0 Z " fill="#574B42" transform="translate(188,142)"/>
<path d="M0 0 C1.98 0 3.96 0 6 0 C6.33 0.99 6.66 1.98 7 3 C7.66 3 8.32 3 9 3 C9.33 2.34 9.66 1.68 10 1 C10.33 1.66 10.66 2.32 11 3 C11.99 3.33 12.98 3.66 14 4 C13.67 5.32 13.34 6.64 13 8 C9.33333333 8 5.66666667 8 2 8 C1.34 9.32 0.68 10.64 0 12 C0 8.04 0 4.08 0 0 Z " fill="#DDDCE0" transform="translate(132,246)"/>
<path d="M0 0 C0.99 0 1.98 0 3 0 C3 3.96 3 7.92 3 12 C-3.0546875 12.1953125 -3.0546875 12.1953125 -5 12 C-5.66 11.34 -6.32 10.68 -7 10 C-6.625 7.375 -6.625 7.375 -6 5 C-4.35 4.67 -2.7 4.34 -1 4 C-0.67 2.68 -0.34 1.36 0 0 Z " fill="#BEBBBA" transform="translate(251,435)"/>
<path d="M0 0 C0.66 0 1.32 0 2 0 C2.33 2.97 2.66 5.94 3 9 C3.99 9 4.98 9 6 9 C6.33 6.03 6.66 3.06 7 0 C7.66 0 8.32 0 9 0 C9 1.32 9 2.64 9 4 C9.99 4 10.98 4 12 4 C12 4.66 12 5.32 12 6 C13.32 6.33 14.64 6.66 16 7 C15.67 8.32 15.34 9.64 15 11 C12.33333333 11 9.66666667 11 7 11 C5.7315625 11.061875 5.7315625 11.061875 4.4375 11.125 C2 11 2 11 0 9 C-0.1953125 6.8359375 -0.1953125 6.8359375 -0.125 4.375 C-0.10695313 3.55773438 -0.08890625 2.74046875 -0.0703125 1.8984375 C-0.04710937 1.27195313 -0.02390625 0.64546875 0 0 Z " fill="#A1A09F" transform="translate(906,40)"/>
<path d="M0 0 C3.625 0.375 3.625 0.375 7 1 C7.09765625 7.15234375 7.09765625 7.15234375 7 9 C6 10 6 10 3.0625 10.1875 C0 10 0 10 -2 8 C-2.25 5 -2.25 5 -2 2 C-1.34 1.34 -0.68 0.68 0 0 Z " fill="#ECF2F4" transform="translate(313,361)"/>
<path d="M0 0 C3.625 0.375 3.625 0.375 7 1 C7.09765625 7.15234375 7.09765625 7.15234375 7 9 C6 10 6 10 3.0625 10.1875 C0 10 0 10 -2 8 C-2.25 5 -2.25 5 -2 2 C-1.34 1.34 -0.68 0.68 0 0 Z " fill="#ECF2F4" transform="translate(249,153)"/>
<path d="M0 0 C3.625 0.375 3.625 0.375 7 1 C7.09765625 7.15234375 7.09765625 7.15234375 7 9 C6 10 6 10 3.0625 10.1875 C0 10 0 10 -2 8 C-2.25 5 -2.25 5 -2 2 C-1.34 1.34 -0.68 0.68 0 0 Z " fill="#ECF2F4" transform="translate(121,153)"/>
<path d="M0 0 C0.66 0.33 1.32 0.66 2 1 C1.6875 3.875 1.6875 3.875 1 7 C-2 9 -2 9 -5.1875 8.625 C-6.5796875 8.315625 -6.5796875 8.315625 -8 8 C-8.6875 5.6875 -8.6875 5.6875 -9 3 C-6.8211988 -0.71677851 -3.98555909 -0.33919652 0 0 Z " fill="#55504C" transform="translate(145,365)"/>
<path d="M0 0 C2.5 0.25 2.5 0.25 4.5 2.25 C4.75 5.25 4.75 5.25 4.5 8.25 C2.5 10.25 2.5 10.25 0 10.5 C-2.5 10.25 -2.5 10.25 -4.5 8.25 C-4.75 5.25 -4.75 5.25 -4.5 2.25 C-2.5 0.25 -2.5 0.25 0 0 Z " fill="#F8F8F3" transform="translate(395.5,152.75)"/>
<path d="M0 0 C2.5 0.25 2.5 0.25 4.5 2.25 C4.75 5.25 4.75 5.25 4.5 8.25 C2.5 10.25 2.5 10.25 0 10.5 C-2.5 10.25 -2.5 10.25 -4.5 8.25 C-4.75 5.25 -4.75 5.25 -4.5 2.25 C-2.5 0.25 -2.5 0.25 0 0 Z " fill="#F5F9F6" transform="translate(347.5,152.75)"/>
<path d="M0 0 C2.5 0.25 2.5 0.25 4.5 2.25 C4.75 5.25 4.75 5.25 4.5 8.25 C2.5 10.25 2.5 10.25 0 10.5 C-2.5 10.25 -2.5 10.25 -4.5 8.25 C-4.75 5.25 -4.75 5.25 -4.5 2.25 C-2.5 0.25 -2.5 0.25 0 0 Z " fill="#EEF1EF" transform="translate(319.5,152.75)"/>
<path d="M0 0 C2.5 0.25 2.5 0.25 4.5 2.25 C3.92307692 8.82692308 3.92307692 8.82692308 2.5 10.25 C0.0625 10.4375 0.0625 10.4375 -2.5 10.25 C-4.5 8.25 -4.5 8.25 -4.75 5.25 C-4.43608753 1.48305032 -3.83691092 0.38369109 0 0 Z " fill="#EDEFEC" transform="translate(195.5,360.75)"/>
<path d="M0 0 C0.99 0 1.98 0 3 0 C4.25664978 2.90600261 5 4.79604584 5 8 C5.66 8 6.32 8 7 8 C7.144375 7.236875 7.28875 6.47375 7.4375 5.6875 C8 3 8 3 9 0 C9.99 0 10.98 0 12 0 C12 3.63 12 7.26 12 11 C11.34 11 10.68 11 10 11 C9.67 9.68 9.34 8.36 9 7 C8.34 8.32 7.68 9.64 7 11 C6.34 11 5.68 11 5 11 C4.34 9.68 3.68 8.36 3 7 C2.67 8.32 2.34 9.64 2 11 C1.34 11 0.68 11 0 11 C0 7.37 0 3.74 0 0 Z " fill="#CEF4DF" transform="translate(215,294)"/>
<path d="M0 0 C0.99 0 1.98 0 3 0 C3 7.92 3 15.84 3 24 C2.01 24 1.02 24 0 24 C0 23.01 0 22.02 0 21 C-0.66 20.67 -1.32 20.34 -2 20 C-1.67 19.67 -1.34 19.34 -1 19 C-0.84379445 17.58672053 -0.74943827 16.1664541 -0.68359375 14.74609375 C-0.64169922 13.89208984 -0.59980469 13.03808594 -0.55664062 12.15820312 C-0.51732422 11.26037109 -0.47800781 10.36253906 -0.4375 9.4375 C-0.39431641 8.53580078 -0.35113281 7.63410156 -0.30664062 6.70507812 C-0.20021858 4.47021515 -0.09820012 2.23523692 0 0 Z " fill="#383636" transform="translate(324,142)"/>
<path d="M0 0 C6.75 0.75 6.75 0.75 9 3 C9.5673295 7.94387137 9.74196918 9.93069148 6.875 14.0625 C4 16 4 16 0.6875 15.8125 C-0.199375 15.544375 -1.08625 15.27625 -2 15 C-2 14.01 -2 13.02 -2 12 C-0.02 12 1.96 12 4 12 C4.33 9.69 4.66 7.38 5 5 C4.360625 4.731875 3.72125 4.46375 3.0625 4.1875 C1 3 1 3 0 0 Z " fill="#42424B" transform="translate(194,358)"/>
<path d="M0 0 C0.99 0 1.98 0 3 0 C3.33 1.32 3.66 2.64 4 4 C5.32 4.33 6.64 4.66 8 5 C8.625 7.375 8.625 7.375 9 10 C7 12 7 12 3.375 12.125 C2.26125 12.08375 1.1475 12.0425 0 12 C0 8.04 0 4.08 0 0 Z " fill="#625444" transform="translate(145,201)"/>
<path d="M0 0 C1.7109375 1.09765625 1.7109375 1.09765625 3 3 C3.29296875 6.13671875 3.29296875 6.13671875 3.1875 9.6875 C3.16042969 10.86699219 3.13335937 12.04648437 3.10546875 13.26171875 C3.07066406 14.16535156 3.03585938 15.06898438 3 16 C2.01 16 1.02 16 0 16 C-0.54466387 11.915021 -1 8.1274515 -1 4 C-3.64 4 -6.28 4 -9 4 C-9 3.01 -9 2.02 -9 1 C-5.95016004 -0.52491998 -3.3576631 -0.23562548 0 0 Z " fill="#444142" transform="translate(180,358)"/>
<path d="M0 0 C2.31 0 4.62 0 7 0 C7.59732819 2.76264289 8 5.16032769 8 8 C8.33 8.99 8.66 9.98 9 11 C8.01 11 7.02 11 6 11 C5.34 10.01 4.68 9.02 4 8 C3.67 8.99 3.34 9.98 3 11 C2.01 11 1.02 11 0 11 C0 7.37 0 3.74 0 0 Z " fill="#76685D" transform="translate(228,202)"/>
<path d="M0 0 C0.33 0.66 0.66 1.32 1 2 C2.299375 1.979375 3.59875 1.95875 4.9375 1.9375 C6.29165633 1.91600546 7.64756083 1.92851801 9 2 C10 3 10 3 10.0625 6.5625 C10.041875 7.696875 10.02125 8.83125 10 10 C8.35 10 6.7 10 5 10 C4.67 9.01 4.34 8.02 4 7 C3.34 7 2.68 7 2 7 C2.33 7.99 2.66 8.98 3 10 C2.01 10 1.02 10 0 10 C0 7.69 0 5.38 0 3 C-0.66 2.67 -1.32 2.34 -2 2 C-1.34 2 -0.68 2 0 2 C0 1.34 0 0.68 0 0 Z " fill="#AFA39A" transform="translate(977,41)"/>
<path d="M0 0 C0.99 0 1.98 0 3 0 C3 7.92 3 15.84 3 24 C2.01 24 1.02 24 0 24 C0 16.08 0 8.16 0 0 Z " fill="#493636" transform="translate(207,350)"/>
<path d="M0 0 C2.4375 0.1875 2.4375 0.1875 3.4375 1.1875 C3.625 4.625 3.625 4.625 3.4375 8.1875 C2.7775 8.8475 2.1175 9.5075 1.4375 10.1875 C-3.11805556 9.63194444 -3.11805556 9.63194444 -4.5625 8.1875 C-4.75 5.25 -4.75 5.25 -4.5625 2.1875 C-2.5625 0.1875 -2.5625 0.1875 0 0 Z " fill="#F8FBF7" transform="translate(288.5625,360.8125)"/>
<path d="M0 0 C4.55555556 0.55555556 4.55555556 0.55555556 6 2 C6.1875 4.9375 6.1875 4.9375 6 8 C4 10 4 10 1.4375 10.1875 C-1 10 -1 10 -2 9 C-2.1875 5.5625 -2.1875 5.5625 -2 2 C-1.34 1.34 -0.68 0.68 0 0 Z " fill="#F6F9F6" transform="translate(194,153)"/>
<path d="M0 0 C1.32 0 2.64 0 4 0 C4 1.65 4 3.3 4 5 C4.66 5.33 5.32 5.66 6 6 C6.66 5.01 7.32 4.02 8 3 C7.67 5.31 7.34 7.62 7 10 C4.36 10.33 1.72 10.66 -1 11 C-2.26264601 6.70700357 -1.62950412 4.12168689 0 0 Z " fill="#8B7E84" transform="translate(1215,40)"/>
<path d="M0 0 C0.99 0 1.98 0 3 0 C3 3.96 3 7.92 3 12 C1.02 12 -0.96 12 -3 12 C-3.66 11.34 -4.32 10.68 -5 10 C-4.625 7.375 -4.625 7.375 -4 5 C-2.68 4.67 -1.36 4.34 0 4 C0 2.68 0 1.36 0 0 Z " fill="#C8CACA" transform="translate(1263,39)"/>
<path d="M0 0 C0.99 0.33 1.98 0.66 3 1 C4.125 3.5 4.125 3.5 5 6 C6.06645115 7.29633621 6.06645115 7.29633621 8.5625 7.0625 C9.366875 7.041875 10.17125 7.02125 11 7 C11.66 5.02 12.32 3.04 13 1 C13.33 2.32 13.66 3.64 14 5 C14.66 5 15.32 5 16 5 C15.75 6.875 15.75 6.875 15 9 C11.84015718 11.34062431 8.83352545 11.47919068 5 11 C1.58379277 8.69175187 1.06633334 7.3316667 0.25 3.25 C0.1675 2.1775 0.085 1.105 0 0 Z " fill="#5B4F43" transform="translate(339,155)"/>
<path d="M0 0 C0.33 0.66 0.66 1.32 1 2 C1.66 2.33 2.32 2.66 3 3 C2.34 3 1.68 3 1 3 C1 4.98 1 6.96 1 9 C1.66 9.33 2.32 9.66 3 10 C2.360625 9.814375 1.72125 9.62875 1.0625 9.4375 C0.0415625 9.2209375 0.0415625 9.2209375 -1 9 C-1.33 9.33 -1.66 9.66 -2 10 C-4.5 10.125 -4.5 10.125 -7 10 C-8 9 -8 9 -8.0625 5.9375 C-8.041875 4.968125 -8.02125 3.99875 -8 3 C-5.29120665 1.64560332 -2.99066732 1.93498549 0 2 C0 1.34 0 0.68 0 0 Z " fill="#CFD2D6" transform="translate(998,41)"/>
<path d="M0 0 C-0.83144531 0.50660156 -0.83144531 0.50660156 -1.6796875 1.0234375 C-2.40414062 1.46945313 -3.12859375 1.91546875 -3.875 2.375 C-4.59429687 2.81585938 -5.31359375 3.25671875 -6.0546875 3.7109375 C-8.11793582 4.9853713 -8.11793582 4.9853713 -10 7 C-10.66790364 9.8715965 -10.66790364 9.8715965 -10 13 C-6.6171201 16.46155153 -3.64274654 18.49793494 1 20 C1 19.34 1 18.68 1 18 C1.99 18.33 2.98 18.66 4 19 C3.67 19.33 3.34 19.66 3 20 C3.99 20.66 4.98 21.32 6 22 C-0.66052461 21.83040331 -5.92343374 20.51656135 -11 16 C-12.8611824 12.86153556 -13.62454746 10.65806368 -13 7 C-9.55534866 2.86641839 -5.56300448 -1.85433483 0 0 Z " fill="#A08AB9" transform="translate(59,35)"/>
<path d="M0 0 C1.32 0 2.64 0 4 0 C4 5.28 4 10.56 4 16 C2.68 16 1.36 16 0 16 C0 10.72 0 5.44 0 0 Z " fill="#5D4D4C" transform="translate(424,358)"/>
<path d="M0 0 C1.32 0 2.64 0 4 0 C4 5.28 4 10.56 4 16 C2.68 16 1.36 16 0 16 C0 10.72 0 5.44 0 0 Z " fill="#5D4D4C" transform="translate(300,358)"/>
<path d="M0 0 C1.32 0 2.64 0 4 0 C4 5.28 4 10.56 4 16 C2.68 16 1.36 16 0 16 C0 10.72 0 5.44 0 0 Z " fill="#545354" transform="translate(154,358)"/>
<path d="M0 0 C0.66 0 1.32 0 2 0 C2 3.96 2 7.92 2 12 C0.02 12 -1.96 12 -4 12 C-4.66 11.34 -5.32 10.68 -6 10 C-5.625 7.375 -5.625 7.375 -5 5 C-3.68 4.67 -2.36 4.34 -1 4 C-0.67 2.68 -0.34 1.36 0 0 Z " fill="#856E66" transform="translate(189,201)"/>
<path d="M0 0 C1.32 0 2.64 0 4 0 C4 5.28 4 10.56 4 16 C2.68 16 1.36 16 0 16 C0 10.72 0 5.44 0 0 Z " fill="#484D5D" transform="translate(146,150)"/>
<path d="M0 0 C0.99 0 1.98 0 3 0 C3.33 0.66 3.66 1.32 4 2 C4.66 1.34 5.32 0.68 6 0 C6.99 0 7.98 0 9 0 C9 0.99 9 1.98 9 3 C7.35 3.66 5.7 4.32 4 5 C3.67 8.63 3.34 12.26 3 16 C2.01 16 1.02 16 0 16 C0 10.72 0 5.44 0 0 Z " fill="#483739" transform="translate(500,150)"/>
<path d="M0 0 C0.99 0 1.98 0 3 0 C3.33 0.66 3.66 1.32 4 2 C4.66 1.34 5.32 0.68 6 0 C6.99 0 7.98 0 9 0 C9 0.99 9 1.98 9 3 C7.35 3.66 5.7 4.32 4 5 C3.67 8.63 3.34 12.26 3 16 C2.01 16 1.02 16 0 16 C0 10.72 0 5.44 0 0 Z " fill="#483739" transform="translate(459,150)"/>
<path d="M0 0 C0.99 0 1.98 0 3 0 C3.33 3.96 3.66 7.92 4 12 C6.97 12.495 6.97 12.495 10 13 C8.875 14.5625 8.875 14.5625 7 16 C3.875 15.8125 3.875 15.8125 1 15 C-0.44207941 12.11584117 -0.09394887 9.58278472 -0.0625 6.375 C-0.05347656 5.18648438 -0.04445313 3.99796875 -0.03515625 2.7734375 C-0.02355469 1.85820312 -0.01195312 0.94296875 0 0 Z " fill="#3C3A44" transform="translate(361,358)"/>
<path d="M0 0 C0.99 0 1.98 0 3 0 C3.33 3.96 3.66 7.92 4 12 C6.97 12.495 6.97 12.495 10 13 C8.875 14.5625 8.875 14.5625 7 16 C3.875 15.8125 3.875 15.8125 1 15 C-0.44207941 12.11584117 -0.09394887 9.58278472 -0.0625 6.375 C-0.05347656 5.18648437 -0.04445313 3.99796875 -0.03515625 2.7734375 C-0.02355469 1.85820312 -0.01195312 0.94296875 0 0 Z " fill="#3C3A44" transform="translate(294,150)"/>
<path d="M0 0 C0.66 0 1.32 0 2 0 C2 3.96 2 7.92 2 12 C0.02 12 -1.96 12 -4 12 C-5 11 -5 11 -5.0625 7.9375 C-5.041875 6.968125 -5.02125 5.99875 -5 5 C-3.35 4.67 -1.7 4.34 0 4 C0 2.68 0 1.36 0 0 Z " fill="#CBC6C5" transform="translate(140,435)"/>
<path d="M0 0 C1.95216435 1.95216435 2.84826645 3.53199953 4 6 C4.66 4.02 5.32 2.04 6 0 C6.66 0 7.32 0 8 0 C8.66 2.31 9.32 4.62 10 7 C10.99 4.69 11.98 2.38 13 0 C13.95465783 2.16967689 14.14401212 3.56328793 13.3984375 5.82421875 C12.64129615 7.5684743 11.82390802 9.28627131 11 11 C10.34 11 9.68 11 9 11 C8.67 9.02 8.34 7.04 8 5 C7.34 5 6.68 5 6 5 C5.67 6.98 5.34 8.96 5 11 C4.34 11 3.68 11 3 11 C0 4.5 0 4.5 0 0 Z " fill="#D7D4D7" transform="translate(429,243)"/>
<path d="M0 0 C3.375 0.3125 3.375 0.3125 7 1 C9.14309145 4.21463718 9.46579085 6.23061882 9.40234375 10.05859375 C9 12 9 12 6.5 14.5 C5.675 14.995 4.85 15.49 4 16 C3.67 15.34 3.34 14.68 3 14 C3.66 13.01 4.32 12.02 5 11 C5.58333333 8 5.58333333 8 5 5 C2.57327433 3.21030974 2.57327433 3.21030974 0 2 C0 1.34 0 0.68 0 0 Z " fill="#413D43" transform="translate(394,150)"/>
<path d="M0 0 C0.886875 0.185625 1.77375 0.37125 2.6875 0.5625 C5.85178811 0.98042484 7.94839642 0.80777742 11 0 C10.01 0.33 9.02 0.66 8 1 C8.7734375 1.61875 8.7734375 1.61875 9.5625 2.25 C10.036875 2.8275 10.51125 3.405 11 4 C10.6875 6.1875 10.6875 6.1875 10 8 C7.36 8 4.72 8 2 8 C2 5.69 2 3.38 2 1 C1.34 0.67 0.68 0.34 0 0 Z " fill="#AFA5A3" transform="translate(1293,43)"/>
<path d="M0 0 C0.66 0 1.32 0 2 0 C2 1.32 2 2.64 2 4 C3.65 4.33 5.3 4.66 7 5 C7.125 7.375 7.125 7.375 7 10 C6.34 10.66 5.68 11.32 5 12 C3.35 12 1.7 12 0 12 C0 8.04 0 4.08 0 0 Z " fill="#E0E2E7" transform="translate(243,242)"/>
<path d="M0 0 C0.66 0 1.32 0 2 0 C2.33 2.64 2.66 5.28 3 8 C3.99 8.33 4.98 8.66 6 9 C6 6.03 6 3.06 6 0 C6.99 0 7.98 0 9 0 C9.25 7.625 9.25 7.625 7 11 C4.69 10.67 2.38 10.34 0 10 C0 6.7 0 3.4 0 0 Z " fill="#4E505B" transform="translate(217,202)"/>
<path d="M0 0 C0.66 0 1.32 0 2 0 C2 1.32 2 2.64 2 4 C3.65 4.33 5.3 4.66 7 5 C7.125 7.375 7.125 7.375 7 10 C6.34 10.66 5.68 11.32 5 12 C3.35 12 1.7 12 0 12 C0 8.04 0 4.08 0 0 Z " fill="#A3A8B6" transform="translate(869,39)"/>
<path d="M0 0 C2.33944736 0.28730055 4.6739143 0.61936779 7 1 C7.125 3.375 7.125 3.375 7 6 C5 8 5 8 2.4375 8.1875 C0 8 0 8 -1 7 C-1.125 4 -1.125 4 -1 1 C-0.67 0.67 -0.34 0.34 0 0 Z " fill="#D1F3E3" transform="translate(202,297)"/>
<path d="M0 0 C0.886875 0.185625 1.77375 0.37125 2.6875 0.5625 C5.85178811 0.98042484 7.94839642 0.80777742 11 0 C10.01 0.33 9.02 0.66 8 1 C8.7734375 1.61875 8.7734375 1.61875 9.5625 2.25 C10.036875 2.8275 10.51125 3.405 11 4 C10.6875 6.1875 10.6875 6.1875 10 8 C7.36 8 4.72 8 2 8 C2 5.69 2 3.38 2 1 C1.34 0.67 0.68 0.34 0 0 Z " fill="#B0A5A0" transform="translate(1195,43)"/>
<path d="M0 0 C0.33 0 0.66 0 1 0 C1 3.96 1 7.92 1 12 C-0.98 12 -2.96 12 -5 12 C-6 11 -6 11 -6.0625 7.9375 C-6.041875 6.968125 -6.02125 5.99875 -6 5 C-4.35 4.67 -2.7 4.34 -1 4 C-0.67 2.68 -0.34 1.36 0 0 Z " fill="#A3A0AF" transform="translate(237,435)"/>
<path d="M0 0 C0.99 0 1.98 0 3 0 C3.66 1.98 4.32 3.96 5 6 C8.58327753 7.00217064 8.58327753 7.00217064 12 6 C12.33 7.65 12.66 9.3 13 11 C12.34 10.67 11.68 10.34 11 10 C9.88625 10.2475 8.7725 10.495 7.625 10.75 C4 11 4 11 1.5625 8.9375 C-0.1883972 5.64581326 -0.34163269 3.6725514 0 0 Z " fill="#584E46" transform="translate(280,363)"/>
<path d="M0 0 C0.66 0.33 1.32 0.66 2 1 C1.67 3.97 1.34 6.94 1 10 C2.98 10.66 4.96 11.32 7 12 C6.67 12.99 6.34 13.98 6 15 C2.85160094 15.34982212 1.37976221 15.24633224 -1.3125 13.5 C-3.83210805 9.76724733 -3.49582992 7.4624693 -3 3 C-1.5 1 -1.5 1 0 0 Z " fill="#493E3B" transform="translate(311,359)"/>
<path d="M0 0 C2.5 0.125 2.5 0.125 3.5 1.125 C3.625 4.125 3.625 4.125 3.5 7.125 C2.5 8.125 2.5 8.125 0.0625 8.3125 C-2.5 8.125 -2.5 8.125 -4.5 6.125 C-3.77607362 0.18880368 -3.77607362 0.18880368 0 0 Z " fill="#E0F9ED" transform="translate(149.5,296.875)"/>
<path d="M0 0 C1.65 0 3.3 0 5 0 C5 3.3 5 6.6 5 10 C4.01 10.495 4.01 10.495 3 11 C3 10.01 3 9.02 3 8 C1.35 7.67 -0.3 7.34 -2 7 C-2.125 4.625 -2.125 4.625 -2 2 C-1.34 1.34 -0.68 0.68 0 0 Z " fill="#D6CFD6" transform="translate(446,246)"/>
<path d="M0 0 C0.33 0 0.66 0 1 0 C1 3.96 1 7.92 1 12 C-0.98 12 -2.96 12 -5 12 C-6 11 -6 11 -6.0625 7.9375 C-6.041875 6.968125 -6.02125 5.99875 -6 5 C-4.35 4.67 -2.7 4.34 -1 4 C-0.67 2.68 -0.34 1.36 0 0 Z " fill="#E0DFE5" transform="translate(374,242)"/>
<path d="M0 0 C0.33 0.66 0.66 1.32 1 2 C4.24733335 3.2757381 6.67032582 2.83241855 10 2 C9.01 2.66 8.02 3.32 7 4 C7 5.32 7 6.64 7 8 C7.99 8.66 8.98 9.32 10 10 C9.278125 9.814375 8.55625 9.62875 7.8125 9.4375 C4.87173027 8.98004693 2.85896942 9.26483643 0 10 C0 7.69 0 5.38 0 3 C-0.66 2.67 -1.32 2.34 -2 2 C-1.34 2 -0.68 2 0 2 C0 1.34 0 0.68 0 0 Z " fill="#DEDEE2" transform="translate(321,244)"/>
<path d="M0 0 C0.66 0.33 1.32 0.66 2 1 C1.67 3.97 1.34 6.94 1 10 C2.98 10.66 4.96 11.32 7 12 C6.67 12.99 6.34 13.98 6 15 C2.85160094 15.34982212 1.37976221 15.24633224 -1.3125 13.5 C-3.83210805 9.76724733 -3.49582992 7.4624693 -3 3 C-1.5 1 -1.5 1 0 0 Z " fill="#493E3B" transform="translate(247,151)"/>
<path d="M0 0 C0.66 0.33 1.32 0.66 2 1 C1.67 3.97 1.34 6.94 1 10 C2.98 10.66 4.96 11.32 7 12 C6.67 12.99 6.34 13.98 6 15 C2.85160094 15.34982212 1.37976221 15.24633224 -1.3125 13.5 C-3.83210805 9.76724733 -3.49582992 7.4624693 -3 3 C-1.5 1 -1.5 1 0 0 Z " fill="#493E3B" transform="translate(119,151)"/>
<path d="M0 0 C0.33 0 0.66 0 1 0 C1 3.96 1 7.92 1 12 C-0.98 12 -2.96 12 -5 12 C-6 11 -6 11 -6.0625 7.9375 C-6.041875 6.968125 -6.02125 5.99875 -6 5 C-4.35 4.67 -2.7 4.34 -1 4 C-0.67 2.68 -0.34 1.36 0 0 Z " fill="#A3A0AF" transform="translate(817,39)"/>
<path d="M0 0 C1.99954746 -0.04254356 4.00041636 -0.04080783 6 0 C7 1 7 1 7.0625 3.5625 C7.041875 4.366875 7.02125 5.17125 7 6 C5.35 6.33 3.7 6.66 2 7 C2 8.32 2 9.64 2 11 C1.34 11 0.68 11 0 11 C0 7.37 0 3.74 0 0 Z " fill="#DEFAF2" transform="translate(229,294)"/>
<path d="M0 0 C0.625 2.375 0.625 2.375 1 5 C-1 7 -1 7 -3.5625 7.1875 C-6 7 -6 7 -7 6 C-7.04080783 4.00041636 -7.04254356 1.99954746 -7 0 C-4.3333581 -1.33332095 -2.83319697 -0.67102033 0 0 Z " fill="#6E6C71" transform="translate(115,206)"/>
<path d="M0 0 C0.625 2.375 0.625 2.375 1 5 C0.34 5.66 -0.32 6.32 -1 7 C-4.125 6.625 -4.125 6.625 -7 6 C-7 4.02 -7 2.04 -7 0 C-4.3333581 -1.33332095 -2.83319697 -0.67102033 0 0 Z " fill="#6F6B6E" transform="translate(209,206)"/>
<path d="M0 0 C0.66 0 1.32 0 2 0 C2.33 2.97 2.66 5.94 3 9 C3.99 9 4.98 9 6 9 C6.33 6.03 6.66 3.06 7 0 C7.66 0 8.32 0 9 0 C9 1.32 9 2.64 9 4 C9.99 4 10.98 4 12 4 C12.33 4.99 12.66 5.98 13 7 C12.38125 7.103125 11.7625 7.20625 11.125 7.3125 C8.63473516 7.87525373 8.63473516 7.87525373 7 11 C4.5 11.3125 4.5 11.3125 2 11 C0 9 0 9 -0.1953125 6.8359375 C-0.17210937 6.02382813 -0.14890625 5.21171875 -0.125 4.375 C-0.10695313 3.55773438 -0.08890625 2.74046875 -0.0703125 1.8984375 C-0.04710937 1.27195313 -0.02390625 0.64546875 0 0 Z " fill="#8E7F7D" transform="translate(1007,40)"/>
<path d="M0 0 C3.125 0.375 3.125 0.375 6 1 C6.125 3.375 6.125 3.375 6 6 C5.34 6.66 4.68 7.32 4 8 C1.375 7.625 1.375 7.625 -1 7 C-1.625 4.625 -1.625 4.625 -2 2 C-1.34 1.34 -0.68 0.68 0 0 Z " fill="#E7E5E6" transform="translate(211,246)"/>
<path d="M0 0 C2.625 0.375 2.625 0.375 5 1 C5.625 3.375 5.625 3.375 6 6 C5.34 6.66 4.68 7.32 4 8 C1.375 7.625 1.375 7.625 -1 7 C-1.625 4.625 -1.625 4.625 -2 2 C-1.34 1.34 -0.68 0.68 0 0 Z " fill="#B4B1B3" transform="translate(761,43)"/>
<path d="M0 0 C2.625 0.375 2.625 0.375 5 1 C5.625 3.375 5.625 3.375 6 6 C5.34 6.66 4.68 7.32 4 8 C1.375 7.625 1.375 7.625 -1 7 C-1.625 4.625 -1.625 4.625 -2 2 C-1.34 1.34 -0.68 0.68 0 0 Z " fill="#B4B1B3" transform="translate(736,43)"/>
<path d="M0 0 C2.625 0.375 2.625 0.375 5 1 C5.625 3.375 5.625 3.375 6 6 C5.34 6.66 4.68 7.32 4 8 C1.375 7.625 1.375 7.625 -1 7 C-1.625 4.625 -1.625 4.625 -2 2 C-1.34 1.34 -0.68 0.68 0 0 Z " fill="#B4B1B3" transform="translate(649,43)"/>
<path d="M0 0 C0.04254356 1.99954746 0.04080783 4.00041636 0 6 C-1 7 -1 7 -3.5 7.125 C-6 7 -6 7 -7 6 C-7.04080783 4.00041636 -7.04254356 1.99954746 -7 0 C-4.3333581 -1.33332095 -2.83319697 -0.67102033 0 0 Z " fill="#B4B3B6" transform="translate(292,440)"/>
<path d="M0 0 C0.04254356 1.99954746 0.04080783 4.00041636 0 6 C-1 7 -1 7 -3.5 7.125 C-6 7 -6 7 -7 6 C-7.04080783 4.00041636 -7.04254356 1.99954746 -7 0 C-4.3333581 -1.33332095 -2.83319697 -0.67102033 0 0 Z " fill="#B4B3B6" transform="translate(1288,44)"/>
<path d="M0 0 C0.04254356 1.99954746 0.04080783 4.00041636 0 6 C-1 7 -1 7 -3.5 7.125 C-6 7 -6 7 -7 6 C-7.04080783 4.00041636 -7.04254356 1.99954746 -7 0 C-4.3333581 -1.33332095 -2.83319697 -0.67102033 0 0 Z " fill="#B4B3B6" transform="translate(1247,44)"/>
<path d="M0 0 C0.04254356 1.99954746 0.04080783 4.00041636 0 6 C-1 7 -1 7 -3.5 7.125 C-6 7 -6 7 -7 6 C-7.04080783 4.00041636 -7.04254356 1.99954746 -7 0 C-4.3333581 -1.33332095 -2.83319697 -0.67102033 0 0 Z " fill="#B4B3B6" transform="translate(1118,44)"/>
<path d="M0 0 C0.04254356 1.99954746 0.04080783 4.00041636 0 6 C-1 7 -1 7 -3.5 7.125 C-6 7 -6 7 -7 6 C-7.04080783 4.00041636 -7.04254356 1.99954746 -7 0 C-4.3333581 -1.33332095 -2.83319697 -0.67102033 0 0 Z " fill="#B4B3B6" transform="translate(965,44)"/>
<path d="M0 0 C0.04254356 1.99954746 0.04080783 4.00041636 0 6 C-1 7 -1 7 -3.5 7.125 C-6 7 -6 7 -7 6 C-7.04080783 4.00041636 -7.04254356 1.99954746 -7 0 C-4.3333581 -1.33332095 -2.83319697 -0.67102033 0 0 Z " fill="#B4B3B6" transform="translate(885,44)"/>
<path d="M0 0 C2.625 0.375 2.625 0.375 5 1 C5.04254356 2.99954746 5.04080783 5.00041636 5 7 C4 8 4 8 1.5 8.125 C-1 8 -1 8 -2 7 C-2.1875 4.5625 -2.1875 4.5625 -2 2 C-1.34 1.34 -0.68 0.68 0 0 Z " fill="#7E696E" transform="translate(116,439)"/>
<path d="M0 0 C0.99 0 1.98 0 3 0 C3 5.28 3 10.56 3 16 C2.01 16 1.02 16 0 16 C-0.9360342 12.20732808 -0.98276252 9.06325435 -0.5625 5.1875 C-0.40974609 3.72376953 -0.40974609 3.72376953 -0.25390625 2.23046875 C-0.12822266 1.12638672 -0.12822266 1.12638672 0 0 Z " fill="#373636" transform="translate(273,358)"/>
<path d="M0 0 C0.99 0 1.98 0 3 0 C3 5.28 3 10.56 3 16 C2.01 16 1.02 16 0 16 C-0.9360342 12.20732808 -0.98276252 9.06325435 -0.5625 5.1875 C-0.40974609 3.72376953 -0.40974609 3.72376953 -0.25390625 2.23046875 C-0.12822266 1.12638672 -0.12822266 1.12638672 0 0 Z " fill="#373636" transform="translate(180,150)"/>
<path d="M0 0 C2.475 0.495 2.475 0.495 5 1 C5 5.62 5 10.24 5 15 C4.01 15 3.02 15 2 15 C1.93941406 14.16855469 1.87882812 13.33710938 1.81640625 12.48046875 C1.73261719 11.39378906 1.64882813 10.30710938 1.5625 9.1875 C1.48128906 8.10855469 1.40007812 7.02960938 1.31640625 5.91796875 C1.09787539 2.94010095 1.09787539 2.94010095 0 0 Z " fill="#43383D" transform="translate(416,151)"/>
<path d="M0 0 C0.99 0 1.98 0 3 0 C3 5.28 3 10.56 3 16 C2.01 16 1.02 16 0 16 C0 10.72 0 5.44 0 0 Z " fill="#363636" transform="translate(405,358)"/>
<path d="M0 0 C0.99 0 1.98 0 3 0 C3 5.28 3 10.56 3 16 C2.01 16 1.02 16 0 16 C0 10.72 0 5.44 0 0 Z " fill="#493636" transform="translate(332,150)"/>
<path d="M0 0 C1.65 0 3.3 0 5 0 C5.66 0.66 6.32 1.32 7 2 C6.625 4.125 6.625 4.125 6 6 C4.35 6.33 2.7 6.66 1 7 C0.67 8.32 0.34 9.64 0 11 C0 7.37 0 3.74 0 0 Z " fill="#A6989D" transform="translate(100,436)"/>
<path d="M0 0 C0.99 0.33 1.98 0.66 3 1 C4.1875 3.5625 4.1875 3.5625 5 6 C5.66 4.02 6.32 2.04 7 0 C7.99 0.33 8.98 0.66 10 1 C8.68 4.3 7.36 7.6 6 11 C5.01 11 4.02 11 3 11 C2.01 7.37 1.02 3.74 0 0 Z " fill="#514853" transform="translate(168,202)"/>
<path d="M0 0 C1.65 0 3.3 0 5 0 C5.66 0.66 6.32 1.32 7 2 C6.625 4.125 6.625 4.125 6 6 C4.35 6.33 2.7 6.66 1 7 C0.67 8.32 0.34 9.64 0 11 C0 7.37 0 3.74 0 0 Z " fill="#6D5D70" transform="translate(1103,40)"/>
<path d="M0 0 C1.65 0 3.3 0 5 0 C5.66 0.66 6.32 1.32 7 2 C6.625 4.125 6.625 4.125 6 6 C4.35 6.33 2.7 6.66 1 7 C0.67 8.32 0.34 9.64 0 11 C0 7.37 0 3.74 0 0 Z " fill="#A6989D" transform="translate(1049,40)"/>
<path d="M0 0 C1.32 0 2.64 0 4 0 C5.32 4.29 6.64 8.58 8 13 C6.68 13 5.36 13 4 13 C3.32942113 11.2097939 2.6636531 9.41778511 2 7.625 C1.62875 6.62726563 1.2575 5.62953125 0.875 4.6015625 C0 2 0 2 0 0 Z " fill="#4B4B58" transform="translate(120,358)"/>
<path d="M0 0 C0.66 0 1.32 0 2 0 C2.67119549 1.4562545 3.33681807 2.91507867 4 4.375 C4.556875 5.59316406 4.556875 5.59316406 5.125 6.8359375 C6 9 6 9 6 11 C5.34 11 4.68 11 4 11 C4 10.01 4 9.02 4 8 C2.02 8 0.04 8 -2 8 C-2 8.99 -2 9.98 -2 11 C-2.66 10.67 -3.32 10.34 -4 10 C-2.68 6.7 -1.36 3.4 0 0 Z " fill="#7C6E75" transform="translate(861,40)"/>
<path d="M0 0 C0.33 0.99 0.66 1.98 1 3 C2.134375 3 3.26875 3 4.4375 3 C5.95833333 3 7.47916667 3 9 3 C9.66 2.01 10.32 1.02 11 0 C11 2.31 11 4.62 11 7 C7.37 7 3.74 7 0 7 C0 4.69 0 2.38 0 0 Z " fill="#FCFEFC" transform="translate(113,300)"/>
<path d="M0 0 C0.99 0.495 0.99 0.495 2 1 C2 1.99 2 2.98 2 4 C2.66 4 3.32 4 4 4 C4.33 2.68 4.66 1.36 5 0 C5.66 0.33 6.32 0.66 7 1 C7 1.99 7 2.98 7 4 C7.66 4 8.32 4 9 4 C9 2.68 9 1.36 9 0 C9.66 0 10.32 0 11 0 C12 3 12 3 10.6875 5.6875 C10.130625 6.450625 9.57375 7.21375 9 8 C8.34 8 7.68 8 7 8 C6.34 7.01 5.68 6.02 5 5 C4.67 5.99 4.34 6.98 4 8 C3.34 8 2.68 8 2 8 C0.23537317 4.91190305 0 3.76687864 0 0 Z " fill="#DAD9DF" transform="translate(409,246)"/>
<path d="M0 0 C1.67542976 0.28604898 3.34385343 0.61781233 5 1 C5 3.31 5 5.62 5 8 C2.625 8.125 2.625 8.125 0 8 C-0.66 7.34 -1.32 6.68 -2 6 C-1.44444444 1.44444444 -1.44444444 1.44444444 0 0 Z " fill="#4B484E" transform="translate(195,205)"/>
<path d="M0 0 C-0.33 2.31 -0.66 4.62 -1 7 C-2.66611905 7.042721 -4.33382885 7.04063832 -6 7 C-7 6 -7 6 -7.0625 2.9375 C-7.041875 1.968125 -7.02125 0.99875 -7 0 C-4.3333581 -1.33332095 -2.83319697 -0.67102033 0 0 Z " fill="#4D4B4B" transform="translate(162,206)"/>
<path d="M0 0 C1.20703125 2.0625 1.20703125 2.0625 2 4 C1.38511719 3.91621094 0.77023437 3.83242188 0.13671875 3.74609375 C-0.67152344 3.64425781 -1.47976563 3.54242188 -2.3125 3.4375 C-3.11300781 3.33308594 -3.91351563 3.22867187 -4.73828125 3.12109375 C-7.16817116 2.85244822 -7.16817116 2.85244822 -10 4 C-10.33 5.98 -10.66 7.96 -11 10 C-11.33 10 -11.66 10 -12 10 C-12.3125 6.75 -12.3125 6.75 -12 3 C-8.34621076 -1.42883544 -5.37495313 -1.62262736 0 0 Z " fill="#554748" transform="translate(444,359)"/>
<path d="M0 0 C0.66 0 1.32 0 2 0 C2 0.66 2 1.32 2 2 C2.66 2.33 3.32 2.66 4 3 C3.34 3 2.68 3 2 3 C2 4.98 2 6.96 2 9 C2.66 9.33 3.32 9.66 4 10 C2.68 9.67 1.36 9.34 0 9 C0 7.02 0 5.04 0 3 C-0.99 3.33 -1.98 3.66 -3 4 C-3.33 5.98 -3.66 7.96 -4 10 C-4.66 10 -5.32 10 -6 10 C-6 7.36 -6 4.72 -6 2 C-4.02 2 -2.04 2 0 2 C0 1.34 0 0.68 0 0 Z " fill="#DCF8ED" transform="translate(186,295)"/>
<path d="M0 0 C0.99 1.485 0.99 1.485 2 3 C2.66 2.01 3.32 1.02 4 0 C4.66 0 5.32 0 6 0 C6.66 0.99 7.32 1.98 8 3 C8.66 2.01 9.32 1.02 10 0 C9.67 2.64 9.34 5.28 9 8 C8.401875 7.814375 7.80375 7.62875 7.1875 7.4375 C4.83591238 6.77906313 4.83591238 6.77906313 2 8 C0.23537317 4.91190305 0 3.76687864 0 0 Z " fill="#DFD9D9" transform="translate(389,246)"/>
<path d="M0 0 C0.99 1.485 0.99 1.485 2 3 C2.66 2.01 3.32 1.02 4 0 C4.66 0 5.32 0 6 0 C6.66 0.99 7.32 1.98 8 3 C8.66 2.01 9.32 1.02 10 0 C9.67 2.64 9.34 5.28 9 8 C8.401875 7.814375 7.80375 7.62875 7.1875 7.4375 C4.83591238 6.77906313 4.83591238 6.77906313 2 8 C0.23537317 4.91190305 0 3.76687864 0 0 Z " fill="#DFD9D9" transform="translate(300,246)"/>
<path d="M0 0 C0.99 0.495 0.99 0.495 2 1 C2 1.99 2 2.98 2 4 C2.66 4 3.32 4 4 4 C4.33 2.68 4.66 1.36 5 0 C5.66 0.33 6.32 0.66 7 1 C7 1.99 7 2.98 7 4 C7.66 4 8.32 4 9 4 C9 2.68 9 1.36 9 0 C9.66 0 10.32 0 11 0 C10.47731534 2.76276177 9.89130413 5.3260876 9 8 C8.34 8 7.68 8 7 8 C6.34 7.01 5.68 6.02 5 5 C4.67 5.99 4.34 6.98 4 8 C3.34 8 2.68 8 2 8 C0.23537317 4.91190305 0 3.76687864 0 0 Z " fill="#D9D8DE" transform="translate(163,246)"/>
<path d="M0 0 C1.20703125 2.0625 1.20703125 2.0625 2 4 C1.38511719 3.91621094 0.77023437 3.83242187 0.13671875 3.74609375 C-0.67152344 3.64425781 -1.47976563 3.54242188 -2.3125 3.4375 C-3.11300781 3.33308594 -3.91351563 3.22867188 -4.73828125 3.12109375 C-7.16817116 2.85244822 -7.16817116 2.85244822 -10 4 C-10.33 5.98 -10.66 7.96 -11 10 C-11.33 10 -11.66 10 -12 10 C-12.3125 6.75 -12.3125 6.75 -12 3 C-8.34621076 -1.42883544 -5.37495313 -1.62262736 0 0 Z " fill="#554748" transform="translate(494,151)"/>
<path d="M0 0 C1.20703125 2.0625 1.20703125 2.0625 2 4 C1.38511719 3.91621094 0.77023437 3.83242187 0.13671875 3.74609375 C-0.67152344 3.64425781 -1.47976563 3.54242188 -2.3125 3.4375 C-3.11300781 3.33308594 -3.91351563 3.22867188 -4.73828125 3.12109375 C-7.16817116 2.85244822 -7.16817116 2.85244822 -10 4 C-10.33 5.98 -10.66 7.96 -11 10 C-11.33 10 -11.66 10 -12 10 C-12.3125 6.75 -12.3125 6.75 -12 3 C-8.34621076 -1.42883544 -5.37495313 -1.62262736 0 0 Z " fill="#554748" transform="translate(453,151)"/>
<path d="M0 0 C1.32 0.33 2.64 0.66 4 1 C2.02 4.96 0.04 8.92 -2 13 C-2.99 12.67 -3.98 12.34 -5 12 C-4.54738642 10.56068883 -4.08767021 9.12361001 -3.625 7.6875 C-3.24214844 6.48673828 -3.24214844 6.48673828 -2.8515625 5.26171875 C-2 3 -2 3 0 0 Z " fill="#524E53" transform="translate(113,143)"/>
<path d="M0 0 C0.66 0 1.32 0 2 0 C2 3.96 2 7.92 2 12 C1.34 12 0.68 12 0 12 C-0.33 10.02 -0.66 8.04 -1 6 C-1.66 6 -2.32 6 -3 6 C-3 7.32 -3 8.64 -3 10 C-2.34 10.66 -1.68 11.32 -1 12 C-2.32 11.67 -3.64 11.34 -5 11 C-5.625 8.625 -5.625 8.625 -6 6 C-5.34 5.34 -4.68 4.68 -4 4 C-2.68 4 -1.36 4 0 4 C0 2.68 0 1.36 0 0 Z " fill="#818586" transform="translate(722,39)"/>
<path d="M0 0 C5.53846154 -0.36923077 5.53846154 -0.36923077 7.875 1.5 C8.24625 1.995 8.6175 2.49 9 3 C8.01 4.485 8.01 4.485 7 6 C5.0546875 6.29296875 5.0546875 6.29296875 2.875 6.1875 C1.59625 6.125625 0.3175 6.06375 -1 6 C-0.67 5.01 -0.34 4.02 0 3 C0.66 3 1.32 3 2 3 C2 2.34 2 1.68 2 1 C1.34 0.67 0.68 0.34 0 0 Z " fill="#585554" transform="translate(211,150)"/>
<path d="M0 0 C1.65 0.33 3.3 0.66 5 1 C5 3.31 5 5.62 5 8 C3.35 8 1.7 8 0 8 C-0.98120464 4.94736336 -0.98120464 3.05263664 0 0 Z " fill="#AFA39A" transform="translate(214,439)"/>
<path d="M0 0 C2.475 0.495 2.475 0.495 5 1 C5.99 4.3 6.98 7.6 8 11 C7.01 11.33 6.02 11.66 5 12 C3.35 8.04 1.7 4.08 0 0 Z " fill="#4C454B" transform="translate(99,143)"/>
<path d="M0 0 C0.66 0.33 1.32 0.66 2 1 C2.6328125 3.06640625 2.6328125 3.06640625 3.125 5.5625 C3.29257812 6.38878906 3.46015625 7.21507812 3.6328125 8.06640625 C3.75398438 8.70449219 3.87515625 9.34257812 4 10 C1.69 10 -0.62 10 -3 10 C-2.01 6.7 -1.02 3.4 0 0 Z " fill="#E0E9E6" transform="translate(280,147)"/>
<path d="M0 0 C1.98 0.66 3.96 1.32 6 2 C5.67 3.65 5.34 5.3 5 7 C3.68 7 2.36 7 1 7 C1 8.65 1 10.3 1 12 C0.67 12 0.34 12 0 12 C0 8.04 0 4.08 0 0 Z " fill="#EBE7EA" transform="translate(132,246)"/>
<path d="M0 0 C0.99 0 1.98 0 3 0 C3.66 0.99 4.32 1.98 5 3 C5.33 2.01 5.66 1.02 6 0 C6.99 0.33 7.98 0.66 9 1 C7.68 4.3 6.36 7.6 5 11 C4.34 11 3.68 11 3 11 C2.01 7.37 1.02 3.74 0 0 Z " fill="#52444A" transform="translate(99,202)"/>
<path d="M0 0 C0.66 0 1.32 0 2 0 C2 1.65 2 3.3 2 5 C3.98 5 5.96 5 8 5 C8 3.35 8 1.7 8 0 C8.33 0 8.66 0 9 0 C9 3.63 9 7.26 9 11 C8.67 11 8.34 11 8 11 C8 9.35 8 7.7 8 6 C6.02 6 4.04 6 2 6 C2 7.65 2 9.3 2 11 C1.34 11 0.68 11 0 11 C0 7.37 0 3.74 0 0 Z " fill="#6F8792" transform="translate(636,40)"/>
<path d="M0 0 C1.73662334 3.22515763 2.8905928 6.51329166 4 10 C1.69 10 -0.62 10 -3 10 C-2.49287967 6.28111761 -1.88391785 3.26545761 0 0 Z " fill="#ECF0E9" transform="translate(249,355)"/>
<path d="M0 0 C1.73662334 3.22515763 2.8905928 6.51329166 4 10 C1.69 10 -0.62 10 -3 10 C-2.49287967 6.28111761 -1.88391785 3.26545761 0 0 Z " fill="#ECF0E9" transform="translate(109,355)"/>
<path d="M0 0 C0.66 0 1.32 0 2 0 C2.33 1.98 2.66 3.96 3 6 C3.66 5.67 4.32 5.34 5 5 C5.144375 5.78375 5.28875 6.5675 5.4375 7.375 C5.87798925 9.96421018 5.87798925 9.96421018 7 12 C5.68 11.34 4.36 10.68 3 10 C2.67 10.66 2.34 11.32 2 12 C1.34 12 0.68 12 0 12 C0 8.04 0 4.08 0 0 Z " fill="#81898A" transform="translate(267,435)"/>
<path d="M0 0 C4.52671196 0.53255435 7.4200555 2.21559872 11 5 C13.05018722 7.67415724 13.02749539 8.72504609 12.6875 12.125 C12 15 12 15 11 17 C10.34 17 9.68 17 9 17 C9.21269531 16.11248047 9.21269531 16.11248047 9.4296875 15.20703125 C9.8948836 12.70558205 10.17518053 10.54225397 10 8 C7.41666667 5 7.41666667 5 4 3 C3.21625 2.401875 2.4325 1.80375 1.625 1.1875 C1.08875 0.795625 0.5525 0.40375 0 0 Z " fill="#9D83B0" transform="translate(79,34)"/>
<path d="M0 0 C1.65 0.33 3.3 0.66 5 1 C5 3.31 5 5.62 5 8 C3.02 8 1.04 8 -1 8 C-0.67 6.35 -0.34 4.7 0 3 C0.99 3 1.98 3 3 3 C3 2.34 3 1.68 3 1 C2.01 0.67 1.02 0.34 0 0 Z " fill="#8D8E96" transform="translate(1076,43)"/>
<path d="M0 0 C0.33 0.66 0.66 1.32 1 2 C1.99 2 2.98 2 4 2 C4 4.64 4 7.28 4 10 C2.68 10 1.36 10 0 10 C0 7.69 0 5.38 0 3 C-0.66 2.67 -1.32 2.34 -2 2 C-1.34 2 -0.68 2 0 2 C0 1.34 0 0.68 0 0 Z " fill="#ABB2C2" transform="translate(158,437)"/>
<path d="M0 0 C1.67542976 0.28604898 3.34385343 0.61781233 5 1 C5 1.99 5 2.98 5 4 C3.35 4 1.7 4 0 4 C0.33 4.66 0.66 5.32 1 6 C2.32 6 3.64 6 5 6 C5 6.66 5 7.32 5 8 C2.625 8.125 2.625 8.125 0 8 C-0.66 7.34 -1.32 6.68 -2 6 C-1.44444444 1.44444444 -1.44444444 1.44444444 0 0 Z " fill="#F4FBF1" transform="translate(173,297)"/>
<path d="M0 0 C0.33 0.66 0.66 1.32 1 2 C1.99 2 2.98 2 4 2 C4 4.64 4 7.28 4 10 C2.68 10 1.36 10 0 10 C0 7.69 0 5.38 0 3 C-0.66 2.67 -1.32 2.34 -2 2 C-1.34 2 -0.68 2 0 2 C0 1.34 0 0.68 0 0 Z " fill="#E3E5EB" transform="translate(127,244)"/>
<path d="M0 0 C0.66 0 1.32 0 2 0 C2 1.98 2 3.96 2 6 C2.99 6 3.98 6 5 6 C5 4.02 5 2.04 5 0 C5.66 0 6.32 0 7 0 C7 2.64 7 5.28 7 8 C5.00045254 8.04254356 2.99958364 8.04080783 1 8 C0 7 0 7 -0.0625 3.4375 C-0.041875 2.303125 -0.02125 1.16875 0 0 Z " fill="#363754" transform="translate(136,205)"/>
<path d="M0 0 C0.66 0 1.32 0 2 0 C2 1.98 2 3.96 2 6 C2.99 6 3.98 6 5 6 C5 4.02 5 2.04 5 0 C5.66 0 6.32 0 7 0 C7 2.64 7 5.28 7 8 C5.00045254 8.04254356 2.99958364 8.04080783 1 8 C0 7 0 7 -0.0625 3.4375 C-0.041875 2.303125 -0.02125 1.16875 0 0 Z " fill="#363754" transform="translate(118,205)"/>
<path d="M0 0 C1.65 0 3.3 0 5 0 C6.1875 2.75 6.1875 2.75 7 6 C5.625 8.375 5.625 8.375 4 10 C3.67 8.35 3.34 6.7 3 5 C1.68 5 0.36 5 -1 5 C-0.67 3.35 -0.34 1.7 0 0 Z " fill="#594E4D" transform="translate(278,143)"/>
<path d="M0 0 C0.94875 0.04125 1.8975 0.0825 2.875 0.125 C1.555 1.115 0.235 2.105 -1.125 3.125 C-0.795 5.105 -0.465 7.085 -0.125 9.125 C-4 8.25 -4 8.25 -5.125 7.125 C-5.3125 4.6875 -5.3125 4.6875 -5.125 2.125 C-3.125 0.125 -3.125 0.125 0 0 Z " fill="#433D41" transform="translate(384.125,364.875)"/>
<path d="M0 0 C1.99954746 -0.04254356 4.00041636 -0.04080783 6 0 C7 1 7 1 7.0625 4.5625 C7.041875 5.696875 7.02125 6.83125 7 8 C6.34 8 5.68 8 5 8 C5 5.69 5 3.38 5 1 C4.01 1.495 4.01 1.495 3 2 C2.34227572 5.02934491 2.34227572 5.02934491 2 8 C1.34 8 0.68 8 0 8 C0 5.36 0 2.72 0 0 Z " fill="#CFF8EE" transform="translate(155,297)"/>
<path d="M0 0 C2.625 0.375 2.625 0.375 5 1 C5 1.99 5 2.98 5 4 C3.35 4 1.7 4 0 4 C0.95865509 6.33075929 0.95865509 6.33075929 4 8 C2.35 7.67 0.7 7.34 -1 7 C-1.625 4.625 -1.625 4.625 -2 2 C-1.34 1.34 -0.68 0.68 0 0 Z " fill="#8B8589" transform="translate(173,439)"/>
<path d="M0 0 C0.66 1.32 1.32 2.64 2 4 C4.05000871 4.80528889 4.05000871 4.80528889 6 5 C6.33 6.65 6.66 8.3 7 10 C5 10 3 10 1 10 C0.67 6.7 0.34 3.4 0 0 Z " fill="#86939F" transform="translate(147,201)"/>
<path d="M0 0 C2.64 0 5.28 0 8 0 C8 0.66 8 1.32 8 2 C7.01 2 6.02 2 5 2 C5 4.97 5 7.94 5 11 C4.34 11 3.68 11 3 11 C3 8.03 3 5.06 3 2 C2.01 2 1.02 2 0 2 C0 1.34 0 0.68 0 0 Z " fill="#453636" transform="translate(127,202)"/>
<path d="M0 0 C0.99 0 1.98 0 3 0 C3 3.96 3 7.92 3 12 C2.01 11.67 1.02 11.34 0 11 C0.0928125 9.824375 0.0928125 9.824375 0.1875 8.625 C0.125625 7.75875 0.06375 6.8925 0 6 C-0.99 5.34 -1.98 4.68 -3 4 C-2.01 4 -1.02 4 0 4 C0 2.68 0 1.36 0 0 Z " fill="#959698" transform="translate(1263,39)"/>
<path d="M0 0 C1.65 0 3.3 0 5 0 C5.6875 2.3125 5.6875 2.3125 6 5 C4.5625 6.8125 4.5625 6.8125 3 8 C0.7522025 5.94766315 -0.0022242 4.99332739 -1 2 C-0.67 1.34 -0.34 0.68 0 0 Z " fill="#504E55" transform="translate(247,351)"/>
<path d="M0 0 C1.65 0 3.3 0 5 0 C5.6875 2.3125 5.6875 2.3125 6 5 C4.5625 6.8125 4.5625 6.8125 3 8 C0.7522025 5.94766315 -0.0022242 4.99332739 -1 2 C-0.67 1.34 -0.34 0.68 0 0 Z " fill="#504E55" transform="translate(107,351)"/>
<path d="M0 0 C0.33 0 0.66 0 1 0 C1 2.31 1 4.62 1 7 C1.66 7.33 2.32 7.66 3 8 C2.34 8 1.68 8 1 8 C0.67 8.99 0.34 9.98 0 11 C0 10.01 0 9.02 0 8 C-1.65 8 -3.3 8 -5 8 C-1.125 1.125 -1.125 1.125 0 0 Z " fill="#DDD8D4" transform="translate(405,243)"/>
<path d="M0 0 C0.33 0.99 0.66 1.98 1 3 C0.01 3.66 -0.98 4.32 -2 5 C-2.72965366 7.56282742 -2.72965366 7.56282742 -3 10 C-3.66 8.68 -4.32 7.36 -5 6 C-5.33 7.65 -5.66 9.3 -6 11 C-6.33 11 -6.66 11 -7 11 C-7.3125 8.3125 -7.3125 8.3125 -7 5 C-2.86956522 0 -2.86956522 0 0 0 Z " fill="#655A55" transform="translate(394,150)"/>
<path d="M0 0 C-1 2 -1 2 -3 2.875 C-5.20005805 3.8234856 -5.20005805 3.8234856 -5.75 6.125 C-5.8325 6.74375 -5.915 7.3625 -6 8 C-5.195625 8.12375 -4.39125 8.2475 -3.5625 8.375 C-2.716875 8.58125 -1.87125 8.7875 -1 9 C-0.67 9.66 -0.34 10.32 0 11 C-2.875 11.125 -2.875 11.125 -6 11 C-8 9 -8 9 -8.3125 5.5 C-8.209375 4.345 -8.10625 3.19 -8 2 C-4.77208445 -0.1519437 -3.71599191 -0.20086443 0 0 Z " fill="#888493" transform="translate(1238,40)"/>
<path d="M0 0 C-1 2 -1 2 -3 2.875 C-5.20005805 3.8234856 -5.20005805 3.8234856 -5.75 6.125 C-5.8325 6.74375 -5.915 7.3625 -6 8 C-5.195625 8.12375 -4.39125 8.2475 -3.5625 8.375 C-2.716875 8.58125 -1.87125 8.7875 -1 9 C-0.67 9.66 -0.34 10.32 0 11 C-2.875 11.125 -2.875 11.125 -6 11 C-8 9 -8 9 -8.3125 5.5 C-8.209375 4.345 -8.10625 3.19 -8 2 C-4.77208445 -0.1519437 -3.71599191 -0.20086443 0 0 Z " fill="#888493" transform="translate(956,40)"/>
<path d="M0 0 C0.33 0.66 0.66 1.32 1 2 C1.99 2 2.98 2 4 2 C4.33 3.32 4.66 4.64 5 6 C4.01 6.33 3.02 6.66 2 7 C2.33 7.99 2.66 8.98 3 10 C2.01 10 1.02 10 0 10 C0 7.69 0 5.38 0 3 C-0.66 2.67 -1.32 2.34 -2 2 C-1.34 2 -0.68 2 0 2 C0 1.34 0 0.68 0 0 Z " fill="#A5ABBD" transform="translate(977,41)"/>
<path d="M0 0 C6.75 -0.125 6.75 -0.125 9 1 C9 1.99 9 2.98 9 4 C7.01432292 3.96744792 5.02864583 3.93489583 3.04296875 3.90234375 C0.79694539 3.91736783 0.79694539 3.91736783 -2 5 C-1.34 3.35 -0.68 1.7 0 0 Z " fill="#3F3D42" transform="translate(375,143)"/>
<path d="M0 0 C1.65 0 3.3 0 5 0 C5.33 1.65 5.66 3.3 6 5 C2.25 6.125 2.25 6.125 0 5 C0 3.35 0 1.7 0 0 Z " fill="#DBDBE1" transform="translate(793,44)"/>
<path d="M0 0 C0.99 0.33 1.98 0.66 3 1 C3 1.99 3 2.98 3 4 C3.66 4 4.32 4 5 4 C5.33 2.68 5.66 1.36 6 0 C6.66 0.33 7.32 0.66 8 1 C7.01 3.31 6.02 5.62 5 8 C4.01 7.67 3.02 7.34 2 7 C0.8125 3.4375 0.8125 3.4375 0 0 Z " fill="#C7F2E3" transform="translate(163,297)"/>
<path d="M0 0 C0.66 0 1.32 0 2 0 C2 2.97 2 5.94 2 9 C3.32 9 4.64 9 6 9 C6 9.66 6 10.32 6 11 C4.02 11 2.04 11 0 11 C0 7.37 0 3.74 0 0 Z " fill="#363647" transform="translate(239,202)"/>
<path d="M0 0 C1.99954746 -0.04254356 4.00041636 -0.04080783 6 0 C7 1 7 1 7.0625 4.5625 C7.041875 5.696875 7.02125 6.83125 7 8 C6.67 8 6.34 8 6 8 C5.67 6.02 5.34 4.04 5 2 C4.34 2 3.68 2 3 2 C2.67 3.98 2.34 5.96 2 8 C1.34 8 0.68 8 0 8 C0 5.36 0 2.72 0 0 Z " fill="#797A87" transform="translate(192,439)"/>
<path d="M0 0 C0.33 1.32 0.66 2.64 1 4 C1.66 4 2.32 4 3 4 C2.75 5.875 2.75 5.875 2 8 C0.1875 9.3125 0.1875 9.3125 -2 10 C-4.25 9.625 -4.25 9.625 -6 9 C-5.195625 8.443125 -4.39125 7.88625 -3.5625 7.3125 C-0.75771784 4.78135513 -0.30618405 3.67420866 0 0 Z " fill="#4C3E42" transform="translate(352,156)"/>
<path d="M0 0 C1.99954746 -0.04254356 4.00041636 -0.04080783 6 0 C7 1 7 1 7.0625 4.5625 C7.041875 5.696875 7.02125 6.83125 7 8 C6.67 8 6.34 8 6 8 C5.67 6.02 5.34 4.04 5 2 C4.34 2 3.68 2 3 2 C2.67 3.98 2.34 5.96 2 8 C1.34 8 0.68 8 0 8 C0 5.36 0 2.72 0 0 Z " fill="#797A87" transform="translate(967,43)"/>
<path d="M0 0 C0.33 0.66 0.66 1.32 1 2 C1.66 2.33 2.32 2.66 3 3 C2.34 3 1.68 3 1 3 C1 4.98 1 6.96 1 9 C1.66 9.33 2.32 9.66 3 10 C2.01 10 1.02 10 0 10 C0 7.69 0 5.38 0 3 C-1.32 3.33 -2.64 3.66 -4 4 C-4.33 5.98 -4.66 7.96 -5 10 C-5.33 10 -5.66 10 -6 10 C-6 7.36 -6 4.72 -6 2 C-4.02 2 -2.04 2 0 2 C0 1.34 0 0.68 0 0 Z " fill="#645576" transform="translate(347,437)"/>
<path d="M0 0 C2.625 0.375 2.625 0.375 5 1 C5 1.99 5 2.98 5 4 C4.195625 4.12375 3.39125 4.2475 2.5625 4.375 C1.2940625 4.684375 1.2940625 4.684375 0 5 C-0.33 5.66 -0.66 6.32 -1 7 C-1.625 4.625 -1.625 4.625 -2 2 C-1.34 1.34 -0.68 0.68 0 0 Z " fill="#8D8A8D" transform="translate(146,439)"/>
<path d="M0 0 C0.33 0 0.66 0 1 0 C1 2.31 1 4.62 1 7 C-0.65 7 -2.3 7 -4 7 C-4.33 5.68 -4.66 4.36 -5 3 C-3.35 2.67 -1.7 2.34 0 2 C0 1.34 0 0.68 0 0 Z " fill="#D8D7E0" transform="translate(317,247)"/>
<path d="M0 0 C1.32 0 2.64 0 4 0 C4.33 2.97 4.66 5.94 5 9 C4.01 9.495 4.01 9.495 3 10 C2.01 6.7 1.02 3.4 0 0 Z " fill="#483E41" transform="translate(424,150)"/>
<path d="M0 0 C2.625 0.375 2.625 0.375 5 1 C5 1.99 5 2.98 5 4 C4.195625 4.12375 3.39125 4.2475 2.5625 4.375 C1.2940625 4.684375 1.2940625 4.684375 0 5 C-0.33 5.66 -0.66 6.32 -1 7 C-1.625 4.625 -1.625 4.625 -2 2 C-1.34 1.34 -0.68 0.68 0 0 Z " fill="#8D8A8D" transform="translate(672,43)"/>
<path d="M0 0 C1.32 0 2.64 0 4 0 C4.33 1.98 4.66 3.96 5 6 C4.34 5.67 3.68 5.34 3 5 C2.67 5.99 2.34 6.98 2 8 C1.34 8 0.68 8 0 8 C0 5.36 0 2.72 0 0 Z " fill="#9CA2B5" transform="translate(1064,43)"/>
<path d="M0 0 C2 2 2 2 3 5 C3.66 3.35 4.32 1.7 5 0 C5.66 0.33 6.32 0.66 7 1 C7.125 3.375 7.125 3.375 7 6 C6.34 6.66 5.68 7.32 5 8 C4.01 8 3.02 8 2 8 C0.74335022 5.09399739 0 3.20395416 0 0 Z " fill="#9B929F" transform="translate(324,439)"/>
<path d="M0 0 C1.98 0.495 1.98 0.495 4 1 C3.67 2.65 3.34 4.3 3 6 C1.68 5.67 0.36 5.34 -1 5 C-0.67 3.35 -0.34 1.7 0 0 Z " fill="#EDF9FB" transform="translate(308,440)"/>
<path d="M0 0 C1.98 0.495 1.98 0.495 4 1 C3.67 2.65 3.34 4.3 3 6 C1.68 5.67 0.36 5.34 -1 5 C-0.67 3.35 -0.34 1.7 0 0 Z " fill="#11D6C0" transform="translate(148,298)"/>
<path d="M0 0 C0.66 0 1.32 0 2 0 C2.33 1.32 2.66 2.64 3 4 C3.66 2.68 4.32 1.36 5 0 C5.66 0 6.32 0 7 0 C6.37240135 2.92879371 5.41377341 5.36095629 4 8 C3.34 8 2.68 8 2 8 C1.34 5.36 0.68 2.72 0 0 Z " fill="#DAD5D8" transform="translate(186,246)"/>
<path d="M0 0 C0.33 0 0.66 0 1 0 C1.33 2.97 1.66 5.94 2 9 C5.465 8.505 5.465 8.505 9 8 C8.01 8.33 7.02 8.66 6 9 C6 9.66 6 10.32 6 11 C2.25 12.125 2.25 12.125 0 11 C0 7.37 0 3.74 0 0 Z " fill="#496079" transform="translate(191,142)"/>
<path d="M0 0 C1.98 0.495 1.98 0.495 4 1 C3.67 2.65 3.34 4.3 3 6 C1.68 5.67 0.36 5.34 -1 5 C-0.67 3.35 -0.34 1.7 0 0 Z " fill="#F0FBFB" transform="translate(116,440)"/>
<path d="M0 0 C0.66 0 1.32 0 2 0 C2 0.66 2 1.32 2 2 C2.66 2.33 3.32 2.66 4 3 C3.34 3 2.68 3 2 3 C2 4.98 2 6.96 2 9 C2.66 9.33 3.32 9.66 4 10 C2.68 9.67 1.36 9.34 0 9 C-1.125 2.25 -1.125 2.25 0 0 Z " fill="#E0F8E0" transform="translate(196,295)"/>
<path d="M0 0 C2.33333333 0 4.66666667 0 7 0 C7 0.99 7 1.98 7 3 C5.35 3.33 3.7 3.66 2 4 C1.67 4.99 1.34 5.98 1 7 C0.67 4.69 0.34 2.38 0 0 Z " fill="#F1EFED" transform="translate(310,246)"/>
<path d="M0 0 C0.66 0.33 1.32 0.66 2 1 C1.01 3.97 0.02 6.94 -1 10 C-1.99 9.01 -2.98 8.02 -4 7 C-3.875 4.4375 -3.875 4.4375 -3 2 C-2.01 1.34 -1.02 0.68 0 0 Z " fill="#524954" transform="translate(344,150)"/>
<path d="M0 0 C0.66 0 1.32 0 2 0 C2.66 2.64 3.32 5.28 4 8 C1.525 7.01 1.525 7.01 -1 6 C-0.67 4.02 -0.34 2.04 0 0 Z " fill="#9D979D" transform="translate(773,43)"/>
<path d="M0 0 C1.98 0 3.96 0 6 0 C5.67 1.32 5.34 2.64 5 4 C3.35 4 1.7 4 0 4 C0 2.68 0 1.36 0 0 Z " fill="#F4F5F1" transform="translate(140,367)"/>
<path d="M0 0 C1.98 0 3.96 0 6 0 C6.33 1.65 6.66 3.3 7 5 C6.01 5.495 6.01 5.495 5 6 C5 4.68 5 3.36 5 2 C4.01 2 3.02 2 2 2 C1.67 2.99 1.34 3.98 1 5 C0.67 3.35 0.34 1.7 0 0 Z " fill="#364961" transform="translate(229,202)"/>
<path d="M0 0 C2.64 0 5.28 0 8 0 C7.01 0.33 6.02 0.66 5 1 C5 3.31 5 5.62 5 8 C4.34 8 3.68 8 3 8 C2.814375 6.576875 2.814375 6.576875 2.625 5.125 C2.28312823 1.91332809 2.28312823 1.91332809 0 0 Z " fill="#8E8A8D" transform="translate(1185,43)"/>
<path d="M0 0 C0.66 0 1.32 0 2 0 C2 3.96 2 7.92 2 12 C1.34 11.34 0.68 10.68 0 10 C0 8.68 0 7.36 0 6 C-0.99 5.34 -1.98 4.68 -3 4 C-2.01 4 -1.02 4 0 4 C0 2.68 0 1.36 0 0 Z " fill="#866C79" transform="translate(140,435)"/>
<path d="M0 0 C1.65 0 3.3 0 5 0 C4.67 1.32 4.34 2.64 4 4 C2.35 4 0.7 4 -1 4 C-0.67 2.68 -0.34 1.36 0 0 Z " fill="#F1F8F9" transform="translate(383,367)"/>
<path d="M0 0 C1.65 0 3.3 0 5 0 C4.67 1.32 4.34 2.64 4 4 C2.35 4 0.7 4 -1 4 C-0.67 2.68 -0.34 1.36 0 0 Z " fill="#ECF5F9" transform="translate(174,367)"/>
<path d="M0 0 C-1 2 -1 2 -4 4 C-4 4.66 -4 5.32 -4 6 C-3.01 6.66 -2.02 7.32 -1 8 C-2.65 7.67 -4.3 7.34 -6 7 C-6 5.02 -6 3.04 -6 1 C-4 0 -4 0 0 0 Z " fill="#D7D7DB" transform="translate(469,246)"/>
<path d="M0 0 C0.66 0.33 1.32 0.66 2 1 C1.67 2.65 1.34 4.3 1 6 C-0.32 5.67 -1.64 5.34 -3 5 C-3 4.01 -3 3.02 -3 2 C-2.01 1.34 -1.02 0.68 0 0 Z " fill="#FBFCF8" transform="translate(448,247)"/>
<path d="M0 0 C-1 2 -1 2 -4 4 C-4 4.66 -4 5.32 -4 6 C-3.01 6.66 -2.02 7.32 -1 8 C-2.65 7.67 -4.3 7.34 -6 7 C-6 5.02 -6 3.04 -6 1 C-4 0 -4 0 0 0 Z " fill="#858693" transform="translate(1134,43)"/>
<path d="M0 0 C-1 2 -1 2 -4 4 C-4 4.66 -4 5.32 -4 6 C-3.01 6.66 -2.02 7.32 -1 8 C-2.65 7.67 -4.3 7.34 -6 7 C-6 5.02 -6 3.04 -6 1 C-4 0 -4 0 0 0 Z " fill="#858693" transform="translate(1089,43)"/>
<path d="M0 0 C0.66 0 1.32 0 2 0 C2.33 2.31 2.66 4.62 3 7 C1.35 7 -0.3 7 -2 7 C-1.34 4.69 -0.68 2.38 0 0 Z " fill="#B8B3B2" transform="translate(861,40)"/>
<path d="M0 0 C0.99 0.33 1.98 0.66 3 1 C3 2.98 3 4.96 3 7 C1.68 6.34 0.36 5.68 -1 5 C-0.67 3.35 -0.34 1.7 0 0 Z " fill="#F5F8F6" transform="translate(719,44)"/>
<path d="M0 0 C0.66 0 1.32 0 2 0 C2 1.32 2 2.64 2 4 C2.99 4.33 3.98 4.66 5 5 C4.01 5.33 3.02 5.66 2 6 C1.67 7.98 1.34 9.96 1 12 C0.67 12 0.34 12 0 12 C0 8.04 0 4.08 0 0 Z " fill="#7D6F89" transform="translate(163,435)"/>
<path d="M0 0 C0.99 0.33 1.98 0.66 3 1 C2.67 2.65 2.34 4.3 2 6 C1.01 6 0.02 6 -1 6 C-1.042721 4.33388095 -1.04063832 2.66617115 -1 1 C-0.67 0.67 -0.34 0.34 0 0 Z " fill="#07D2BE" transform="translate(204,298)"/>
<path d="M0 0 C0.66 0 1.32 0 2 0 C2 1.32 2 2.64 2 4 C2.99 4.33 3.98 4.66 5 5 C4.01 5.33 3.02 5.66 2 6 C1.67 7.98 1.34 9.96 1 12 C0.67 12 0.34 12 0 12 C0 8.04 0 4.08 0 0 Z " fill="#D6CED9" transform="translate(112,242)"/>
<path d="M0 0 C2.31 0.33 4.62 0.66 7 1 C7 1.99 7 2.98 7 4 C4.69 4 2.38 4 0 4 C0 2.68 0 1.36 0 0 Z " fill="#48474A" transform="translate(316,150)"/>
<path d="M0 0 C0.33 0.66 0.66 1.32 1 2 C1.66 2.33 2.32 2.66 3 3 C2.34 3 1.68 3 1 3 C1 4.98 1 6.96 1 9 C1.66 9.33 2.32 9.66 3 10 C2.01 10 1.02 10 0 10 C0 7.69 0 5.38 0 3 C-0.99 3.33 -1.98 3.66 -3 4 C-3.99 3.34 -4.98 2.68 -6 2 C-4.02 2 -2.04 2 0 2 C0 1.34 0 0.68 0 0 Z " fill="#5C5879" transform="translate(998,41)"/>
<path d="M0 0 C0.33 0.66 0.66 1.32 1 2 C1.66 2.33 2.32 2.66 3 3 C3 5.31 3 7.62 3 10 C2.01 9.67 1.02 9.34 0 9 C-1.125 2.25 -1.125 2.25 0 0 Z " fill="#7E727F" transform="translate(280,437)"/>
<path d="M0 0 C2.625 -0.1875 2.625 -0.1875 5 0 C5.33 0.99 5.66 1.98 6 3 C3.36 3 0.72 3 -2 3 C-1.34 2.01 -0.68 1.02 0 0 Z " fill="#F2F5F1" transform="translate(437,361)"/>
<path d="M0 0 C0.33 0.66 0.66 1.32 1 2 C1.66 2.33 2.32 2.66 3 3 C3 5.31 3 7.62 3 10 C2.01 9.67 1.02 9.34 0 9 C-1.125 2.25 -1.125 2.25 0 0 Z " fill="#D7D4D2" transform="translate(121,244)"/>
<path d="M0 0 C0.33 0.99 0.66 1.98 1 3 C2.65 2.34 4.3 1.68 6 1 C6 2.32 6 3.64 6 5 C4.02 5 2.04 5 0 5 C-0.5625 3.0625 -0.5625 3.0625 -1 1 C-0.67 0.67 -0.34 0.34 0 0 Z " fill="#3A3F4D" transform="translate(185,208)"/>
<path d="M0 0 C2.625 -0.1875 2.625 -0.1875 5 0 C5.33 0.99 5.66 1.98 6 3 C3.36 3 0.72 3 -2 3 C-1.34 2.01 -0.68 1.02 0 0 Z " fill="#F2F5F1" transform="translate(487,153)"/>
<path d="M0 0 C2.625 -0.1875 2.625 -0.1875 5 0 C5.33 0.99 5.66 1.98 6 3 C3.36 3 0.72 3 -2 3 C-1.34 2.01 -0.68 1.02 0 0 Z " fill="#F2F5F1" transform="translate(446,153)"/>
<path d="M0 0 C1.98 0 3.96 0 6 0 C6 0.99 6 1.98 6 3 C3.69 3 1.38 3 -1 3 C-0.67 2.01 -0.34 1.02 0 0 Z " fill="#EDF3F3" transform="translate(211,153)"/>
<path d="M0 0 C0.33 0.66 0.66 1.32 1 2 C1.66 2.33 2.32 2.66 3 3 C3 5.31 3 7.62 3 10 C2.01 9.67 1.02 9.34 0 9 C-1.125 2.25 -1.125 2.25 0 0 Z " fill="#837978" transform="translate(1272,41)"/>
<path d="M0 0 C0.33 0.66 0.66 1.32 1 2 C1.66 2.33 2.32 2.66 3 3 C3 5.31 3 7.62 3 10 C2.01 9.67 1.02 9.34 0 9 C-1.125 2.25 -1.125 2.25 0 0 Z " fill="#7E727F" transform="translate(897,41)"/>
<path d="M0 0 C1.32 0 2.64 0 4 0 C4.33 1.65 4.66 3.3 5 5 C4.67 4.34 4.34 3.68 4 3 C2.02 3.33 0.04 3.66 -2 4 C-1.34 2.68 -0.68 1.36 0 0 Z " fill="#716C65" transform="translate(175,364)"/>
<path d="M0 0 C1.65 0 3.3 0 5 0 C5.33 0.99 5.66 1.98 6 3 C3.69 3 1.38 3 -1 3 C-0.67 2.01 -0.34 1.02 0 0 Z " fill="#F3F9F9" transform="translate(219,361)"/>
<path d="M0 0 C0.33 0 0.66 0 1 0 C1 1.98 1 3.96 1 6 C-0.65 6 -2.3 6 -4 6 C-4.33 5.01 -4.66 4.02 -5 3 C-3.35 3 -1.7 3 0 3 C0 2.01 0 1.02 0 0 Z " fill="#20D3B4" transform="translate(178,298)"/>
<path d="M0 0 C2 2 2 2 2.125 5.625 C2.08375 6.73875 2.0425 7.8525 2 9 C0.68 7.68 -0.64 6.36 -2 5 C-1.34 3.35 -0.68 1.7 0 0 Z " fill="#DBF2FE" transform="translate(236,204)"/>
<path d="M0 0 C0.99 0.495 0.99 0.495 2 1 C4.00800456 0.71887936 6.01014051 0.38932033 8 0 C7.01 0.495 7.01 0.495 6 1 C6 1.66 6 2.32 6 3 C4.35 3.66 2.7 4.32 1 5 C0.67 3.35 0.34 1.7 0 0 Z " fill="#4D5860" transform="translate(410,150)"/>
<path d="M0 0 C1.32 1.32 2.64 2.64 4 4 C2.35 4.33 0.7 4.66 -1 5 C-1 1 -1 1 0 0 Z " fill="#F6F8F1" transform="translate(1216,45)"/>
<path d="M0 0 C1.32 0 2.64 0 4 0 C3.67 1.65 3.34 3.3 3 5 C2.01 5 1.02 5 0 5 C0 3.35 0 1.7 0 0 Z " fill="#E9F4F5" transform="translate(1104,41)"/>
<path d="M0 0 C1.9375 0.6875 1.9375 0.6875 2.9375 2.6875 C0.6275 3.0175 -1.6825 3.3475 -4.0625 3.6875 C-4.0625 2.6975 -4.0625 1.7075 -4.0625 0.6875 C-2.0625 -0.3125 -2.0625 -0.3125 0 0 Z " fill="#5E504D" transform="translate(384.0625,358.3125)"/>
<path d="M0 0 C1.32 0 2.64 0 4 0 C4 0.99 4 1.98 4 3 C2.35 3 0.7 3 -1 3 C-1.33 3.99 -1.66 4.98 -2 6 C-1.125 1.125 -1.125 1.125 0 0 Z " fill="#83ECE0" transform="translate(173,297)"/>
<path d="M0 0 C1.32 0.33 2.64 0.66 4 1 C3.67 2.32 3.34 3.64 3 5 C2.01 5 1.02 5 0 5 C0 3.35 0 1.7 0 0 Z " fill="#00D6C2" transform="translate(231,295)"/>
<path d="M0 0 C0.93065133 2.60582371 1.14917407 3.64198224 0.0625 6.25 C-0.4634375 7.11625 -0.4634375 7.11625 -1 8 C-1.66 8 -2.32 8 -3 8 C-3 6.68 -3 5.36 -3 4 C-2.34 4 -1.68 4 -1 4 C-0.67 2.68 -0.34 1.36 0 0 Z " fill="#DBDADF" transform="translate(196,246)"/>
<path d="M0 0 C0.99 0 1.98 0 3 0 C3 1.65 3 3.3 3 5 C1.68 4.67 0.36 4.34 -1 4 C-0.67 2.68 -0.34 1.36 0 0 Z " fill="#FAFCFA" transform="translate(423,244)"/>
<path d="M0 0 C0.33 1.32 0.66 2.64 1 4 C1.99 4 2.98 4 4 4 C4.33 4.99 4.66 5.98 5 7 C3.35 7.33 1.7 7.66 0 8 C0 5.36 0 2.72 0 0 Z " fill="#A0B2C7" transform="translate(1015,40)"/>
<path d="M0 0 C4.51478398 0.53115106 7.34666857 2.36620292 11 5 C10.34 5.66 9.68 6.32 9 7 C8.2575 6.401875 7.515 5.80375 6.75 5.1875 C4.52582236 3.41826778 2.28337765 1.69139085 0 0 Z " fill="#A18BBA" transform="translate(79,34)"/>
<path d="M0 0 C2.31 0 4.62 0 7 0 C7 0.99 7 1.98 7 3 C5.35 3 3.7 3 2 3 C2 2.34 2 1.68 2 1 C1.34 0.67 0.68 0.34 0 0 Z " fill="#545151" transform="translate(452,358)"/>
<path d="M0 0 C0.99 0.33 1.98 0.66 3 1 C3 2.65 3 4.3 3 6 C2.01 6.33 1.02 6.66 0 7 C0 4.69 0 2.38 0 0 Z " fill="#C7D6DE" transform="translate(808,44)"/>
</svg>
